<svg width="17" height="17" viewBox="0 0 17 17" fill="none" xmlns="http://www.w3.org/2000/svg">
<path d="M13.6138 6.49567C13.6138 6.67592 13.5502 6.84556 13.423 6.9728L7.66574 12.7301C7.5385 12.8573 7.35826 12.9315 7.17801 12.9315C7.00837 12.9315 6.82813 12.8573 6.70089 12.7301L2.86272 8.89188C2.73549 8.76465 2.67188 8.59501 2.67188 8.41476C2.67188 8.23451 2.73549 8.05427 2.86272 7.92704L3.82757 6.9728C3.9548 6.84556 4.12444 6.77134 4.30469 6.77134C4.48493 6.77134 4.65458 6.84556 4.78181 6.9728L7.17801 9.369L11.5039 5.05371C11.6311 4.92648 11.8008 4.85226 11.981 4.85226C12.1613 4.85226 12.3309 4.92648 12.4581 5.05371L13.423 6.00795C13.5502 6.13518 13.6138 6.31543 13.6138 6.49567ZM16.2857 8.21331C16.2857 3.71777 12.6384 0.0704512 8.14286 0.0704512C3.64732 0.0704512 0 3.71777 0 8.21331C0 12.7088 3.64732 16.3562 8.14286 16.3562C12.6384 16.3562 16.2857 12.7088 16.2857 8.21331Z" fill="#4ADB9A"/>
</svg>
