<svg width="26" height="25" viewBox="0 0 26 25" fill="none" xmlns="http://www.w3.org/2000/svg">
<path d="M5.41992 22.9609C5.44093 23.2033 5.44756 23.4269 5.48294 23.6459C5.52496 23.9039 5.67754 24.1029 5.91747 24.1986C6.15077 24.2909 6.39622 24.3865 6.64168 24.4087C7.07621 24.4488 7.51516 24.4387 7.9519 24.4421C8.09453 24.4432 8.1874 24.491 8.26701 24.6189C8.40301 24.8391 8.58434 24.9736 8.87402 24.9736C12.7914 24.9658 16.7099 24.9681 20.6272 24.9714C20.8185 24.9714 20.9656 24.9047 21.0916 24.7768C21.1546 24.7134 21.211 24.6422 21.2597 24.5677C21.3205 24.4754 21.3935 24.4376 21.5062 24.441C21.8391 24.4476 22.173 24.4499 22.5058 24.4399C22.8552 24.4287 23.1957 24.3687 23.5219 24.2286C23.8226 24.0996 23.9774 23.8683 24.0117 23.5503C24.025 23.4257 24.0283 23.3012 24.0316 23.1755C24.0382 22.9632 24.0371 22.962 23.8248 22.962C17.7591 22.962 11.6935 22.962 5.62779 22.962C5.5714 22.9609 5.5128 22.9609 5.41992 22.9609Z" fill="#D3A950"/>
<path d="M14.3569 0C14.4155 0.45035 14.5725 0.830645 14.8434 1.16313C15.1442 1.53119 15.5311 1.79695 15.9148 2.06494C16.5318 2.4975 17.0525 3.01234 17.3964 3.6962C17.5987 4.09874 17.6938 4.50906 17.5755 4.95607C17.5556 5.0328 17.5435 5.11286 17.5324 5.19181C17.528 5.22072 17.5357 5.25074 17.5401 5.31079C17.6341 5.17735 17.706 5.0706 17.7834 4.96719C18.0123 4.66029 18.0664 4.31669 18.0178 3.94417C17.9581 3.49049 17.7911 3.07795 17.5147 2.72545C17.1642 2.27844 16.7817 1.85811 16.409 1.43C16.063 1.03302 15.7302 0.63049 15.645 0.0822861C15.6395 0.0500389 15.561 0.0088958 15.5157 0.00667185C15.2625 -0.00111197 15.0093 0.00222395 14.755 0.00222395C14.6278 0 14.5007 0 14.3569 0Z" fill="#D3A950"/>
<path d="M11.1527 0.0114486C11.1848 0.306122 11.2821 0.548532 11.4125 0.778711C11.6514 1.19793 11.9974 1.5204 12.3601 1.82619C12.7891 2.18981 13.2358 2.53452 13.646 2.91815C14.3138 3.54308 14.5725 4.30923 14.3315 5.2166C14.3271 5.23217 14.3315 5.24885 14.3315 5.29778C14.6422 5.00421 14.8025 4.67173 14.818 4.27476C14.8423 3.65428 14.6013 3.11608 14.2453 2.63682C13.9611 2.2543 13.6206 1.91515 13.2999 1.56043C12.9107 1.12787 12.5326 0.690865 12.4441 0.081503C12.4397 0.0503677 12.37 0.00811265 12.3302 0.0058887C12.1412 0.000328831 11.9532 0.00811265 11.7641 0.00922463C11.5651 0.0125606 11.3683 0.0114486 11.1527 0.0114486Z" fill="#D3A950"/>
<path d="M24.6972 7.17058C24.6585 7.04048 24.5999 6.99489 24.4583 6.99489C18.0046 6.99934 11.5497 6.99822 5.09592 6.99822C5.05169 6.99822 5.00194 6.98711 4.96324 7.00156C4.9157 7.01935 4.85046 7.0516 4.8383 7.09163C4.59505 7.92561 4.31974 8.75181 4.22023 9.62137C4.20807 9.73146 4.16163 9.74703 4.06544 9.74035C3.85205 9.72701 3.63755 9.71367 3.42526 9.72256C2.54404 9.75815 1.75902 10.0406 1.12437 10.6755C0.582593 11.2171 0.260844 11.882 0.114896 12.6293C-0.164837 14.0593 0.0518734 15.4014 0.910975 16.5946C1.53789 17.4652 2.40583 17.9045 3.48718 17.8744C4.16605 17.8555 4.79628 17.6476 5.39666 17.3429C5.50833 17.2862 5.56362 17.3073 5.62443 17.4063C5.81018 17.7077 5.99151 18.0123 6.19274 18.3048C7.0828 19.6013 8.21058 20.6466 9.51637 21.5139C10.2085 21.9743 10.9327 22.2167 11.7708 22.1867C12.7891 22.1511 13.8097 22.1778 14.828 22.1778C14.828 22.1822 14.828 22.1867 14.828 22.1922C16.011 22.1922 17.1952 22.1967 18.3783 22.1878C18.5629 22.1867 18.7664 22.1667 18.9278 22.0866C19.3579 21.8709 19.7836 21.6396 20.1838 21.3738C20.8682 20.9179 21.525 20.4164 22.0812 19.8059C23.2388 18.5372 24.0304 17.0505 24.5645 15.4225C24.8851 14.4462 25.0908 13.4455 25.1914 12.4202C25.3661 10.6366 25.2146 8.88747 24.6972 7.17058ZM4.76311 15.6783C4.21802 15.9707 3.6475 16.1587 3.01837 16.0541C2.42021 15.9541 2.02327 15.5849 1.7546 15.06C1.55337 14.6653 1.47597 14.2405 1.47265 13.7268C1.48592 13.1575 1.63519 12.5625 2.07303 12.0699C2.57611 11.5028 3.33459 11.395 4.00463 11.5762C4.1163 11.6062 4.09308 11.6974 4.09971 11.7697C4.13731 12.1878 4.16053 12.607 4.20807 13.024C4.29099 13.7512 4.46016 14.4596 4.68793 15.1546C4.73105 15.2869 4.76643 15.4225 4.79628 15.5593C4.80513 15.596 4.78965 15.665 4.76311 15.6783ZM14.6876 9.33337C14.6876 9.31336 14.692 9.29334 14.6942 9.27332C14.7296 8.97198 14.7948 8.91304 15.215 8.92194C15.5201 8.93751 15.8905 9.11654 16.2366 9.34783C17.0603 9.89825 17.6806 10.6377 18.1759 11.4906C18.3816 11.8442 18.5872 12.1978 18.7741 12.5614C18.8482 12.7049 18.8814 12.8717 18.9123 13.0318C18.9289 13.1163 18.9134 13.213 18.888 13.2964C18.8084 13.5567 18.5784 13.6245 18.4037 13.4254C17.81 12.7482 17.1377 12.1556 16.4622 11.5662C16.0011 11.1637 15.5212 10.7801 15.0779 10.3575C14.5394 9.84488 14.6854 10.0495 14.6876 9.33337ZM12.7106 20.065C12.4596 20.2229 12.1932 20.2908 11.9013 20.1851C11.4247 20.0128 10.9493 19.8393 10.4717 19.6692C10.3788 19.6358 10.3379 19.5791 10.35 19.4779C10.3865 19.171 10.3954 18.8585 10.4573 18.5561C10.6276 17.7254 10.6961 16.8848 10.7337 16.0408C10.7414 15.8607 10.7602 15.6816 10.7625 15.5015C10.7647 15.2958 10.8531 15.1412 11.0024 15.0067C11.1826 14.8432 11.3584 14.6742 11.5298 14.5018C11.7653 14.2639 11.9942 14.2461 12.2518 14.4674C12.6819 14.8365 12.9937 15.2991 13.2635 15.7917C13.6294 16.4611 13.876 17.1683 13.8871 17.8133C13.886 18.8697 13.4879 19.5747 12.7106 20.065ZM19.4287 19.4412C19.3192 19.5891 19.2219 19.747 19.118 19.8982C19.0306 20.025 18.9676 20.0317 18.8559 19.9294C17.4639 18.6473 16.0719 17.3641 14.6787 16.0819C13.2745 14.7898 11.8703 13.4988 10.465 12.2078C10.3368 12.09 10.2063 11.9743 10.0792 11.8553C9.93984 11.7252 9.84696 11.5684 9.83591 11.3727C9.79721 10.6944 9.83259 10.0239 10.0548 9.37451C10.0681 9.33671 10.088 9.30224 10.1057 9.26665C10.2516 8.98088 10.2516 8.98088 10.7138 9.00867C11.3827 9.03647 12.1158 9.31669 12.8101 9.71367C13.9866 10.3875 14.9562 11.3093 15.8496 12.3168C16.8657 13.4621 17.7458 14.7064 18.4966 16.0419C18.804 16.5901 19.097 17.1472 19.359 17.7177C19.4917 18.0079 19.5591 18.3326 19.6233 18.6484C19.6807 18.9342 19.6056 19.2033 19.4287 19.4412Z" fill="#D3A950"/>
</svg>
