<svg width="28" height="28" viewBox="0 0 28 28" fill="none" xmlns="http://www.w3.org/2000/svg">
<g clip-path="url(#clip0)">
<path d="M0.977524 14.0562C3.08692 12.7242 7.21996 11.8782 11.776 11.8782C16.3321 11.8782 20.4651 12.7242 22.5745 14.0562C23.1976 13.6789 23.552 13.2559 23.552 12.81C23.552 11.1007 18.2871 9.7002 11.776 9.7002C5.26491 9.7002 0 11.1007 0 12.81C0 13.2559 0.354424 13.6789 0.977524 14.0562Z" fill="black"/>
<path d="M2.26379 14.6567C4.39605 15.4341 7.86598 15.9258 11.7532 15.9258C15.6404 15.9258 19.1104 15.417 21.2426 14.6567C19.1561 13.6563 15.5776 13.0332 11.7532 13.0332C7.93458 13.0332 4.35604 13.6563 2.26379 14.6567Z" fill="black"/>
<path d="M11.776 6.09901C12.0847 6.09901 12.3533 5.83034 12.3533 5.52165V1.1428C12.3533 0.834106 12.0847 0.56543 11.776 0.56543C11.4673 0.56543 11.1986 0.834106 11.1986 1.1428V5.52165C11.1986 5.8532 11.4673 6.09901 11.776 6.09901Z" fill="black"/>
<path d="M7.48862 7.56777C7.79732 7.56777 8.06599 7.29909 8.06599 6.9904V2.61155C8.06599 2.30286 7.79732 2.03418 7.48862 2.03418C7.17993 2.03418 6.91125 2.29714 6.91125 2.61155V6.9904C6.91125 7.29909 7.17993 7.56777 7.48862 7.56777Z" fill="black"/>
<path d="M16.0462 7.56777C16.3549 7.56777 16.6236 7.29909 16.6236 6.9904V2.61155C16.6236 2.30286 16.3549 2.03418 16.0462 2.03418C15.7375 2.03418 15.4689 2.30286 15.4689 2.61155V6.9904C15.4689 7.29909 15.7318 7.56777 16.0462 7.56777Z" fill="black"/>
<path d="M23.3977 15.1657C23.4206 15.0571 23.4206 14.9428 23.4435 14.8342C20.9568 16.5434 15.4232 17.0807 11.776 17.0807C8.12891 17.0807 2.57818 16.5663 0.108643 14.8342C0.886089 21.9455 5.81944 27.4334 11.776 27.4334C14.3542 27.4334 16.7323 26.4101 18.6644 24.678C18.6644 24.678 27.8509 23.146 27.9995 17.3894C28.0224 16.4348 27.2792 13.3536 23.3977 15.1657ZM20.2022 23.0316C21.557 21.3224 22.5803 19.1844 23.1119 16.8064C26.3474 14.4054 26.8962 16.8064 26.8448 17.3609C26.4446 21.734 20.2022 23.0316 20.2022 23.0316Z" fill="black"/>
</g>
<defs>
<clipPath id="clip0">
<rect y="-0.000976562" width="28" height="28" fill="white"/>
</clipPath>
</defs>
</svg>
