<svg width="208" height="64" viewBox="0 0 208 64" fill="none" xmlns="http://www.w3.org/2000/svg">
<g clip-path="url(#clip0)">
<path d="M13.8901 58.8457C13.944 59.467 13.961 60.0397 14.0517 60.6012C14.1593 61.2623 14.5504 61.7724 15.1653 62.0175C15.7631 62.254 16.3922 62.4991 17.0213 62.5561C18.1349 62.6587 19.2598 62.633 20.3791 62.6416C20.7446 62.6444 20.9826 62.767 21.1866 63.0947C21.5352 63.6589 21.9999 64.0038 22.7423 64.0038C32.7817 63.9838 42.824 63.9895 52.8634 63.9981C53.3536 63.9981 53.7305 63.8271 54.0535 63.4994C54.215 63.3369 54.3595 63.1545 54.4842 62.9636C54.6401 62.7271 54.8271 62.6302 55.1161 62.6387C55.969 62.6558 56.8248 62.6615 57.6777 62.6359C58.5731 62.6074 59.4458 62.4535 60.2817 62.0944C61.0525 61.7639 61.4492 61.1711 61.537 60.3561C61.571 60.0369 61.5795 59.7177 61.588 59.3957C61.605 58.8514 61.6022 58.8486 61.0582 58.8486C45.5131 58.8486 29.968 58.8486 14.4229 58.8486C14.2783 58.8457 14.1282 58.8457 13.8901 58.8457Z" fill="#D3A950"/>
<path d="M36.7942 0C36.9444 1.15415 37.3467 2.12877 38.041 2.98085C38.8117 3.92412 39.8035 4.60522 40.7867 5.29201C42.3679 6.40057 43.7025 7.72001 44.5837 9.47262C45.1023 10.5042 45.346 11.5558 45.0428 12.7014C44.9918 12.898 44.9606 13.1032 44.9323 13.3055C44.9209 13.3796 44.9408 13.4566 44.9521 13.6105C45.193 13.2685 45.3771 12.9949 45.5755 12.7299C46.162 11.9434 46.3009 11.0628 46.1762 10.1081C46.0232 8.94541 45.5953 7.88815 44.8869 6.98477C43.9887 5.83917 43.0083 4.76196 42.0533 3.6648C41.1664 2.64743 40.3135 1.61582 40.0953 0.210883C40.0812 0.128239 39.88 0.0227981 39.7638 0.0170986C39.1149 -0.00284976 38.466 0.00569953 37.8143 0.00569953C37.4884 0 37.1626 0 36.7942 0Z" fill="#D3A950"/>
<path d="M28.5825 0.0290951C28.6647 0.784282 28.914 1.40553 29.2484 1.99543C29.8605 3.06979 30.7474 3.89622 31.6768 4.67991C32.7762 5.61178 33.921 6.49521 34.9723 7.47838C36.6838 9.07994 37.3468 11.0434 36.7291 13.3688C36.7178 13.4087 36.7291 13.4515 36.7291 13.5769C37.5253 12.8245 37.9362 11.9725 37.9759 10.9551C38.0382 9.36492 37.4205 7.98563 36.5081 6.75739C35.7798 5.77707 34.9071 4.90789 34.0854 3.99882C33.0879 2.89026 32.1188 1.7703 31.8922 0.20863C31.8808 0.128837 31.7023 0.0205458 31.6003 0.0148462C31.1158 0.000597432 30.634 0.0205458 30.1495 0.0233955C29.6395 0.0319448 29.1351 0.0290951 28.5825 0.0290951Z" fill="#D3A950"/>
<path d="M63.2939 18.378C63.1947 18.0445 63.0445 17.9277 62.6818 17.9277C46.1422 17.9391 29.5996 17.9362 13.0599 17.9362C12.9466 17.9362 12.8191 17.9078 12.7199 17.9448C12.5981 17.9904 12.4309 18.073 12.3997 18.1756C11.7763 20.313 11.0708 22.4303 10.8157 24.6588C10.7846 24.941 10.6655 24.9809 10.419 24.9638C9.87214 24.9296 9.32242 24.8954 8.77837 24.9182C6.52 25.0094 4.50815 25.7332 2.88166 27.3604C1.4932 28.7483 0.668628 30.4524 0.294593 32.3674C-0.422306 36.0322 0.133078 39.4719 2.33478 42.5297C3.94143 44.7611 6.1658 45.8867 8.93706 45.8098C10.6769 45.7613 12.292 45.2284 13.8307 44.4476C14.1169 44.3023 14.2585 44.3564 14.4144 44.61C14.8904 45.3823 15.3551 46.1632 15.8709 46.9126C18.1519 50.2355 21.0422 52.9142 24.3886 55.1371C26.1625 56.3169 28.0185 56.9381 30.1663 56.8612C32.7761 56.77 35.3915 56.8384 38.0012 56.8384C38.0012 56.8498 38.0012 56.8612 38.0012 56.8754C41.0332 56.8754 44.068 56.8868 47.0999 56.864C47.5731 56.8612 48.0945 56.8099 48.5082 56.6047C49.6105 56.0518 50.7014 55.4591 51.7272 54.778C53.4812 53.6096 55.1643 52.3243 56.5896 50.7598C59.5564 47.5082 61.5852 43.6981 62.9539 39.5261C63.7756 37.024 64.3027 34.4592 64.5605 31.8317C65.0082 27.2607 64.62 22.778 63.2939 18.378ZM12.207 40.1815C10.8101 40.931 9.34793 41.4126 7.73561 41.1447C6.20264 40.8882 5.18538 39.9421 4.49681 38.597C3.9811 37.5854 3.78275 36.4968 3.77425 35.1802C3.80825 33.7211 4.19079 32.1965 5.31289 30.934C6.60217 29.4806 8.54602 29.2042 10.2632 29.6687C10.5494 29.7457 10.4899 29.9793 10.5069 30.1646C10.6032 31.2361 10.6627 32.3105 10.7846 33.3791C10.9971 35.2429 11.4306 37.0582 12.0143 38.8393C12.1249 39.1784 12.2155 39.5261 12.292 39.8766C12.3147 39.9706 12.275 40.1473 12.207 40.1815ZM37.6414 23.9208C37.6414 23.8695 37.6527 23.8182 37.6584 23.7669C37.749 22.9946 37.9162 22.8435 38.993 22.8663C39.7751 22.9062 40.7243 23.365 41.6112 23.9578C43.7223 25.3684 45.3119 27.2635 46.5814 29.4493C47.1084 30.3555 47.6355 31.2617 48.1143 32.1936C48.3042 32.5612 48.3892 32.9887 48.4685 33.3991C48.511 33.6156 48.4714 33.8636 48.4062 34.0773C48.2022 34.7442 47.6128 34.918 47.1651 34.4079C45.6434 32.6724 43.9206 31.1534 42.1893 29.6431C41.0077 28.6115 39.7779 27.6283 38.6416 26.5454C37.2617 25.2316 37.6357 25.756 37.6414 23.9208ZM32.5749 51.4238C31.9317 51.8285 31.2488 52.0023 30.5007 51.7316C29.2794 51.2899 28.061 50.8453 26.8369 50.4093C26.5988 50.3238 26.494 50.1785 26.5252 49.9191C26.6187 49.1326 26.6414 48.3318 26.8 47.5567C27.2364 45.4279 27.4121 43.2735 27.5084 41.1105C27.5283 40.6489 27.5764 40.1901 27.5821 39.7284C27.5878 39.2012 27.8145 38.8051 28.197 38.4602C28.6589 38.0413 29.1094 37.6082 29.5486 37.1665C30.1522 36.5566 30.7387 36.511 31.399 37.0781C32.5012 38.0242 33.3003 39.2097 33.9917 40.4722C34.9296 42.1877 35.5615 44.0002 35.5898 45.653C35.587 48.3603 34.5669 50.1671 32.5749 51.4238ZM49.7918 49.8251C49.5113 50.2041 49.2619 50.6088 48.9956 50.9963C48.7717 51.3212 48.6102 51.3383 48.324 51.0761C44.7565 47.7904 41.189 44.5017 37.6187 41.216C34.02 37.9045 30.4214 34.596 26.8199 31.2874C26.4912 30.9853 26.1568 30.6889 25.8309 30.384C25.4739 30.0506 25.2359 29.6488 25.2076 29.1472C25.1084 27.4089 25.1991 25.6905 25.7686 24.0262C25.8026 23.9293 25.8536 23.841 25.899 23.7498C26.273 23.0174 26.273 23.0174 27.4574 23.0886C29.1718 23.1599 31.0504 23.878 32.8299 24.8954C35.8449 26.6223 38.3299 28.9848 40.6195 31.5667C43.2236 34.5019 45.4791 37.6908 47.4031 41.1134C48.1908 42.5183 48.9417 43.946 49.6133 45.408C49.9533 46.1518 50.1262 46.9839 50.2905 47.7932C50.4379 48.5256 50.2452 49.2152 49.7918 49.8251Z" fill="#D3A950"/>
<path d="M176.947 18.5432C177.117 18.2184 177.074 17.9647 177.077 17.7168C177.083 16.8049 177.077 15.893 177.08 14.981C177.08 14.7559 177.046 14.5251 177.156 14.2885C177.239 14.2686 177.321 14.2287 177.406 14.2287C179.423 14.2259 181.441 14.2259 183.458 14.2287C183.523 14.2287 183.589 14.2515 183.645 14.2629C183.827 14.4082 183.776 14.602 183.778 14.7759C183.781 15.779 183.778 16.7821 183.778 17.7852C183.778 18.0075 183.798 18.2326 183.81 18.4862C183.977 18.5176 184.104 18.5575 184.232 18.5603C185.071 18.5774 185.907 18.6002 186.742 18.6886C187.559 18.7769 188.358 18.9166 189.137 19.1673C190.936 19.7458 192.092 20.9627 192.608 22.7922C192.843 23.6301 192.965 24.4879 192.985 25.3542C193.013 26.4941 193.016 27.634 192.982 28.7739C192.954 29.7058 192.86 30.6348 192.611 31.5439C192.16 33.1939 191.154 34.3452 189.587 35.0063C188.7 35.3825 187.782 35.6048 186.822 35.6504C185.986 35.6903 185.147 35.7102 184.308 35.7416C184.175 35.7473 184.042 35.7644 183.937 35.7758C183.742 35.9354 183.778 36.1291 183.776 36.303C183.773 37.2833 183.776 38.2636 183.773 39.2439C183.773 39.4691 183.761 39.6942 183.753 39.9478C183.623 39.9763 183.518 40.0191 183.41 40.0191C181.438 40.0248 179.466 40.0248 177.494 40.0219C177.386 40.0219 177.278 39.9991 177.173 39.9849C177.046 39.7398 177.086 39.509 177.086 39.2867C177.08 38.352 177.086 37.4172 177.08 36.4825C177.08 36.2602 177.128 36.0237 176.981 35.8157C176.774 35.6931 176.541 35.7444 176.32 35.7359C175.459 35.7045 174.6 35.6903 173.739 35.6418C172.917 35.5962 172.13 35.3796 171.381 35.0405C169.911 34.3708 168.97 33.2195 168.457 31.7063C168.185 30.9055 168.018 30.0762 168.01 29.227C167.995 27.8135 167.99 26.4 168.018 24.9894C168.032 24.1687 168.185 23.3593 168.423 22.57C168.962 20.7889 170.172 19.686 171.903 19.1246C172.795 18.8339 173.722 18.7684 174.649 18.7085C175.417 18.6658 176.182 18.6031 176.947 18.5432ZM183.838 31.6123C184.736 31.7975 185.379 31.5097 185.799 30.7459C186.045 30.2957 186.128 29.8112 186.128 29.3011C186.122 27.9133 186.128 26.5283 186.128 25.1404C186.128 24.9581 186.122 24.7757 186.102 24.5961C186.054 24.1601 185.909 23.7555 185.674 23.3878C185.246 22.7238 184.648 22.5301 183.835 22.8122C183.818 22.929 183.787 23.0601 183.784 23.1941C183.719 24.9267 183.756 31.0395 183.838 31.6123ZM176.947 22.7609C176.21 22.5586 175.708 22.7865 175.329 23.3166C174.989 23.7897 174.799 24.3254 174.796 24.9096C174.787 26.4114 174.787 27.9133 174.796 29.4151C174.799 29.8739 174.895 30.3185 175.119 30.726C175.476 31.3729 176.102 31.6978 176.864 31.6322C176.89 31.5952 176.935 31.5581 176.935 31.5211C176.95 28.8366 176.958 26.1521 176.967 23.4676C176.969 23.2454 176.955 23.0202 176.947 22.7609Z" fill="white"/>
<path d="M97.5889 39.9593C97.5776 39.7598 97.5605 39.6031 97.5605 39.4463C97.5634 38.2152 97.5719 36.987 97.5804 35.7559C97.5804 35.716 97.6172 35.679 97.6626 35.5935C97.7872 35.5821 97.9402 35.565 98.0933 35.5536C98.2746 35.5393 98.4588 35.545 98.6345 35.5137C99.2437 35.4111 99.5044 35.1774 99.6121 34.5533C99.6914 34.1087 99.7339 33.6499 99.7368 33.1968C99.7509 31.5781 99.7424 29.9595 99.7424 28.3437C99.7424 23.9465 99.7424 19.5464 99.7424 15.1493C99.7424 14.8785 99.7509 14.6078 99.7566 14.3114C99.9238 14.2772 100.051 14.243 100.179 14.2316C100.337 14.2174 100.496 14.2259 100.655 14.2259C105.186 14.2259 109.719 14.2259 114.25 14.2288C114.52 14.2288 114.792 14.186 115.092 14.2972C115.115 14.414 115.149 14.5423 115.16 14.6705C115.171 14.8073 115.163 14.9441 115.163 15.0809C115.163 23.1257 115.163 31.1706 115.16 39.2155C115.16 39.4606 115.202 39.7142 115.098 39.9792C114.984 39.9963 114.877 40.0191 114.766 40.0248C113.202 40.0818 109.062 40.0448 108.481 39.965C108.464 39.8482 108.433 39.7199 108.425 39.5917C108.413 39.3865 108.422 39.1813 108.422 38.9761C108.422 32.8007 108.422 26.6253 108.422 20.447C108.422 20.1534 108.413 19.8599 108.408 19.5322C108.229 19.4894 108.082 19.4211 107.937 19.4268C107.47 19.4439 106.991 19.327 106.54 19.5122C106.435 19.8001 106.478 20.0736 106.478 20.3444C106.475 25.0607 106.475 29.7799 106.478 34.4963C106.478 35.0891 106.478 35.6818 106.362 36.266C106.291 36.6222 106.217 36.9813 106.107 37.3261C105.735 38.466 104.965 39.2127 103.845 39.6088C103.154 39.8539 102.437 39.9792 101.715 40.002C100.425 40.0419 99.1332 40.0191 97.8411 40.022C97.7816 40.022 97.7164 39.9906 97.5889 39.9593Z" fill="white"/>
<path d="M134.497 14.2971C135.075 14.2117 140.413 14.2003 141.102 14.2829C141.122 14.4197 141.164 14.5707 141.167 14.7189C141.173 15.7904 141.158 16.8619 141.173 17.9334C141.198 19.6889 141.243 21.4415 141.277 23.197C141.286 23.6301 141.272 24.0633 141.272 24.4965C141.272 24.6304 141.292 24.7615 141.3 24.8726C141.504 25.0579 141.711 25.0151 141.904 24.961C142.193 24.884 142.465 24.7501 142.64 24.4993C142.771 24.3169 142.89 24.1117 142.958 23.9009C143.04 23.6444 143.102 23.3679 143.105 23.1001C143.131 21.6638 143.281 20.2361 143.238 18.7969C143.216 18.0218 143.267 17.2495 143.386 16.4801C143.51 15.6764 143.762 14.9355 144.301 14.2487C144.95 14.2003 145.627 14.2316 146.304 14.2259C146.984 14.2202 147.664 14.2145 148.344 14.2259C149.016 14.2373 149.693 14.1746 150.407 14.2744C150.365 14.394 150.353 14.4852 150.308 14.5536C149.974 15.0609 149.849 15.6422 149.761 16.2293C149.574 17.4518 149.605 18.6801 149.685 19.9112C149.758 21.0482 149.804 22.1853 149.634 23.3224C149.393 24.9325 148.548 26.041 147.024 26.611C146.792 26.6993 146.551 26.7677 146.318 26.8561C146.245 26.8846 146.182 26.9501 146.066 27.0299C146.179 27.1068 146.239 27.1695 146.316 27.198C146.613 27.312 146.916 27.4004 147.211 27.5229C148.616 28.1014 149.381 29.1786 149.619 30.669C149.809 31.8488 149.767 33.0315 149.685 34.2142C149.602 35.3769 149.617 36.5367 149.781 37.6937C149.858 38.2352 150.005 38.7624 150.217 39.2696C150.285 39.4349 150.351 39.6031 150.407 39.7484C150.311 39.9365 150.164 39.9023 150.036 39.9051C149.288 39.9108 148.54 39.9023 147.792 39.9108C147.202 39.9194 146.613 39.965 146.026 39.9621C145.553 39.9593 145.077 39.9137 144.604 39.8795C144.335 39.8595 144.148 39.6971 143.992 39.4891C143.771 39.1927 143.641 38.8507 143.553 38.4945C143.391 37.8305 143.272 37.1551 143.267 36.4683C143.255 35.26 143.258 34.0517 143.258 32.8434C143.258 32.3191 143.267 31.7947 143.261 31.2703C143.255 30.8571 143.167 30.4582 143.003 30.0763C142.768 29.5291 142.334 29.2271 141.776 29.0931C141.479 29.0219 141.294 29.1558 141.258 29.4664C141.241 29.6004 141.249 29.74 141.26 29.874C141.323 30.5807 141.334 31.2846 141.229 31.9885C141.192 32.2364 141.195 32.49 141.195 32.738C141.187 34.8126 141.181 36.8872 141.173 38.9619C141.173 39.2326 141.173 39.5033 141.173 39.8054C141.011 39.8424 140.886 39.8966 140.762 39.8966C138.812 39.9023 136.863 39.9023 134.913 39.8994C134.783 39.8994 134.655 39.8567 134.502 39.8282C134.48 39.6971 134.446 39.5888 134.44 39.4805C134.429 39.2753 134.434 39.0702 134.434 38.865C134.434 30.9768 134.434 23.0915 134.437 15.2034C134.431 14.9212 134.389 14.622 134.497 14.2971Z" fill="white"/>
<path d="M168.171 39.9708C168.066 39.9907 167.981 40.0249 167.896 40.0249C165.836 40.0278 163.779 40.0278 161.693 40.0278C161.659 39.8853 161.62 39.7827 161.611 39.6772C161.515 38.429 161.424 37.1809 161.334 35.9327C161.328 35.8643 161.325 35.7959 161.314 35.7275C161.283 35.5308 161.198 35.4197 161.016 35.414C160.387 35.3941 159.755 35.357 159.101 35.4425C158.917 35.9298 158.973 36.4371 158.897 36.9244C158.82 37.4174 158.8 37.9218 158.766 38.4205C158.732 38.9164 158.713 39.4122 158.684 39.9337C158.545 39.9708 158.443 40.0192 158.338 40.0192C156.344 40.0221 154.352 40.0221 152.357 40.0192C152.292 40.0192 152.229 39.9907 152.119 39.9622C152.107 39.8397 152.071 39.7086 152.085 39.5832C152.133 39.0845 152.187 38.5858 152.252 38.0899C152.456 36.5112 152.677 34.9324 152.875 33.3508C153.04 32.0399 153.176 30.729 153.334 29.4181C153.49 28.1072 153.66 26.7992 153.822 25.4883C153.969 24.2914 154.114 23.0945 154.269 21.8976C154.465 20.3843 154.677 18.874 154.876 17.3636C154.998 16.4374 155.108 15.5113 155.224 14.5879C155.236 14.4996 155.253 14.4112 155.273 14.2944C155.409 14.2716 155.536 14.2346 155.666 14.2346C158.497 14.2317 161.331 14.2317 164.162 14.2346C164.272 14.2346 164.383 14.2545 164.51 14.2659C164.621 14.5395 164.649 14.8102 164.686 15.0752C165 17.3294 165.312 19.5836 165.621 21.8377C165.867 23.6416 166.105 25.4455 166.352 27.2494C166.644 29.3697 166.938 31.487 167.244 33.6044C167.531 35.5878 167.828 37.5656 168.12 39.549C168.137 39.6801 168.151 39.814 168.171 39.9708ZM161.008 30.6891C161.028 30.5723 161.059 30.4839 161.053 30.4013C160.784 27.5515 160.509 24.7017 160.231 21.852C160.228 21.8178 160.178 21.7864 160.141 21.7408C160.013 21.7551 159.956 21.8463 159.939 21.966C159.812 22.8665 159.662 23.7613 159.565 24.6647C159.373 26.517 159.211 28.3751 159.041 30.2303C159.027 30.3785 159.067 30.5324 159.087 30.7119C159.75 30.7603 160.37 30.7945 161.008 30.6891Z" fill="white"/>
<path d="M116.959 39.9915C116.925 39.8348 116.897 39.7493 116.889 39.6609C116.877 39.5469 116.88 39.433 116.88 39.319C116.88 31.1857 116.88 23.0525 116.88 14.9193C116.88 14.8509 116.877 14.7825 116.883 14.7141C116.9 14.318 116.971 14.2353 117.37 14.2325C118.141 14.2239 118.912 14.2296 119.68 14.2268C120.722 14.2268 121.762 14.2268 122.805 14.2268C122.987 14.2268 123.168 14.2239 123.349 14.2382C123.599 14.2581 123.706 14.3721 123.726 14.6343C123.74 14.8167 123.735 14.9991 123.735 15.1815C123.735 17.5268 123.735 19.875 123.735 22.2204C123.735 22.4683 123.746 22.7162 123.752 22.9214C123.941 23.1095 124.128 23.0782 124.307 23.081C125.191 23.0896 126.075 23.0753 126.956 23.101C127.84 23.1266 128.713 23.2321 129.569 23.48C130.94 23.8789 131.836 24.7567 132.255 26.1274C132.462 26.8057 132.581 27.5038 132.587 28.2106C132.601 30.214 132.618 32.2202 132.584 34.2236C132.57 35.0614 132.437 35.8993 132.335 36.7342C132.301 37.0021 132.21 37.2671 132.119 37.5208C131.788 38.4526 131.159 39.1138 130.249 39.4757C129.83 39.641 129.39 39.7806 128.948 39.8519C128.348 39.9488 127.733 40.0086 127.124 40.0115C123.93 40.0286 120.737 40.0229 117.54 40.0229C117.365 40.0286 117.186 40.0058 116.959 39.9915ZM123.797 35.5003C124.211 35.5886 124.536 35.4632 124.868 35.4119C125.367 35.335 125.619 35.0158 125.695 34.5456C125.749 34.2093 125.78 33.8674 125.783 33.5254C125.792 32.1575 125.792 30.7925 125.783 29.4246C125.78 29.0142 125.752 28.6067 125.718 28.1963C125.69 27.8344 125.542 27.5095 125.194 27.3785C124.752 27.2132 124.287 27.1077 123.814 27.2759C123.788 27.3585 123.749 27.4212 123.749 27.4839C123.743 30.0572 123.743 32.6306 123.743 35.2039C123.743 35.2951 123.774 35.3834 123.797 35.5003Z" fill="white"/>
<path d="M87.8358 18.7494C87.8897 18.9859 87.9067 19.1398 87.9605 19.2823C88.139 19.7497 88.3402 20.2085 88.5159 20.6787C88.8786 21.6448 89.0996 22.6422 89.1081 23.6795C89.1081 23.8106 89.0883 23.9445 89.0741 24.1098C88.9211 24.1298 88.7936 24.1611 88.6633 24.1611C86.0337 24.164 83.4069 24.164 80.7774 24.1611C80.6244 24.1611 80.4742 24.1269 80.3353 24.1127C80.2333 23.8505 80.2843 23.6254 80.341 23.4088C80.4515 22.9899 80.5507 22.5681 80.698 22.1634C81.5396 19.8352 82.7921 17.7748 84.6622 16.1248C85.5775 15.3183 86.6032 14.7113 87.7962 14.4149C89.1081 14.09 90.4031 14.1584 91.6839 14.5574C92.5651 14.831 93.333 15.3069 93.9706 15.9794C96.1723 18.3048 97.6117 21.015 98.0339 24.2238C98.2408 25.7855 98.2946 27.3614 98.1813 28.9316C98.0566 30.6244 97.5834 32.243 96.9175 33.8019C96.3593 35.1071 95.6481 36.3211 94.7243 37.4011C94.0527 38.1848 93.2792 38.8459 92.3554 39.3162C91.7037 39.6467 91.0208 39.8662 90.2812 39.9175C89.672 39.9602 89.0685 40.0343 88.4536 39.9374C87.9775 39.8633 87.5298 39.7265 87.0878 39.5441C85.6086 38.9343 84.3874 37.9796 83.3729 36.7457C82.6929 35.9192 82.0808 35.0387 81.5708 34.0982C81.0466 33.135 80.7009 32.0977 80.4288 31.0347C80.3892 30.8809 80.3835 30.7213 80.3552 30.5303C80.4742 30.5018 80.579 30.4562 80.681 30.4562C82.6079 30.4534 84.5319 30.4534 86.4587 30.4562C86.5891 30.4562 86.7194 30.4847 86.8724 30.5047C86.9291 30.8068 86.9064 31.0775 86.8611 31.3425C86.7336 32.0949 86.9036 32.793 87.255 33.4513C87.5241 33.9529 87.8302 34.4345 88.2297 34.8449C88.3827 35.0016 88.5272 35.1925 88.8304 35.1555C88.8389 35.0016 88.8758 34.842 88.8531 34.6938C88.6406 33.2091 89.1251 31.9039 89.8959 30.6842C90.1877 30.2254 90.5419 29.8065 90.8706 29.3733C91.0208 29.1767 91.2248 29.0143 91.256 28.7464C91.2021 28.5782 91.0633 28.5697 90.9245 28.5668C90.1311 28.564 89.3377 28.5668 88.5442 28.5583C88.3459 28.5554 88.1362 28.6096 87.9209 28.45C88.0767 28.0539 88.3572 27.7176 88.5386 27.33C88.7114 26.9596 88.8531 26.5749 89.026 26.1616C89.1591 26.1474 89.3121 26.1132 89.4652 26.1132C90.1679 26.116 90.8706 26.1303 91.5734 26.136C92.3583 26.1417 92.4404 26.0562 92.4121 25.2839C92.3724 24.2124 92.0352 23.2292 91.5025 22.3116C91.1001 21.6163 90.5958 21.0036 90.0375 20.4336C89.6238 20.0119 89.1903 19.61 88.7596 19.2082C88.4337 18.9061 88.3969 18.8976 87.8358 18.7494Z" fill="white"/>
<path d="M195.371 14.2422C199.131 14.2422 202.797 14.2422 206.492 14.2422C206.524 14.3533 206.58 14.4559 206.58 14.5614C206.586 16.0204 206.583 17.4795 206.583 18.9357C206.583 19.0041 206.58 19.0725 206.569 19.1409C206.546 19.2948 206.456 19.3889 206.303 19.4031C206.121 19.4202 205.94 19.4231 205.761 19.4259C204.787 19.4288 203.812 19.4259 202.837 19.4288C202.613 19.4288 202.384 19.3946 202.154 19.5228C202.137 19.5997 202.098 19.6881 202.098 19.7736C202.095 21.207 202.095 22.6404 202.095 24.0197C202.276 24.2363 202.466 24.205 202.642 24.205C203.594 24.2078 204.546 24.2021 205.498 24.2107C205.719 24.2135 205.951 24.1537 206.184 24.3161C206.201 24.4301 206.232 24.5612 206.235 24.6923C206.288 26.2881 206.257 28.4568 206.175 28.9897C206.031 29.1436 205.841 29.1037 205.665 29.1037C204.736 29.1094 203.806 29.1037 202.877 29.1094C202.653 29.1094 202.432 29.1294 202.18 29.1408C202.149 29.2775 202.103 29.383 202.103 29.4884C202.1 31.1071 202.1 32.7258 202.103 34.3416C202.103 34.4299 202.129 34.5183 202.137 34.5895C202.299 34.7633 202.489 34.7177 202.664 34.7177C203.82 34.7206 204.976 34.7206 206.13 34.7206C206.376 34.7206 206.626 34.7206 206.895 34.7206C206.935 34.8574 206.991 34.96 206.991 35.0654C206.994 36.5701 206.991 38.0719 206.988 39.5766C206.988 39.6421 206.963 39.7077 206.943 39.8131C206.832 39.8473 206.711 39.8986 206.586 39.9186C206.475 39.9385 206.359 39.9271 206.246 39.9271C202.848 39.9243 199.448 39.9214 196.051 39.9157C195.85 39.9157 195.651 39.8929 195.492 39.8844C195.305 39.6934 195.348 39.5025 195.348 39.3258C195.339 38.0719 195.328 36.818 195.328 35.567C195.331 28.7076 195.334 21.8482 195.339 14.9888C195.345 14.758 195.359 14.5357 195.371 14.2422Z" fill="white"/>
<path d="M164.337 44.045C164.972 43.9396 168.517 43.9396 169.109 44.0365C169.132 44.1562 169.174 44.2844 169.174 44.4126C169.183 45.0738 169.177 45.7349 169.18 46.3932C169.18 46.6155 169.197 46.8378 169.208 47.0658C169.526 47.2054 169.823 47.1627 170.109 47.1655C170.905 47.1712 171.69 47.251 172.47 47.4163C172.58 47.4391 172.691 47.4647 172.798 47.4961C174.479 47.9749 175.561 49.2743 175.737 51.0298C175.895 52.5972 175.898 54.1674 175.737 55.7376C175.64 56.6723 175.278 57.4902 174.666 58.2027C174.269 58.6615 173.776 58.9721 173.212 59.1773C172.526 59.4252 171.818 59.5705 171.09 59.6019C170.636 59.6218 170.183 59.619 169.732 59.6332C169.579 59.6389 169.423 59.6617 169.242 59.6788C169.219 59.8584 169.185 60.0094 169.183 60.1633C169.177 60.8244 169.183 61.4856 169.177 62.1439C169.177 62.3206 169.154 62.4972 169.143 62.6739C169.047 62.7053 168.984 62.7452 168.925 62.7452C167.497 62.7509 166.071 62.7509 164.643 62.7509C164.558 62.7509 164.473 62.7252 164.349 62.7024C164.334 62.5542 164.315 62.4232 164.315 62.2921C164.312 61.6081 164.315 60.9242 164.309 60.2431C164.309 60.0664 164.281 59.8897 164.266 59.7216C164.023 59.5876 163.79 59.6361 163.569 59.6332C162.867 59.619 162.164 59.6275 161.472 59.4736C161.206 59.4138 160.94 59.3654 160.679 59.2884C159.242 58.8781 158.384 57.8863 157.967 56.4843C157.865 56.1394 157.817 55.769 157.794 55.4099C157.709 54.0676 157.715 52.7226 157.792 51.3803C157.831 50.665 158.015 49.9925 158.355 49.3598C158.832 48.4736 159.546 47.8837 160.498 47.5816C161.37 47.3052 162.269 47.2111 163.175 47.1769C163.513 47.1655 163.853 47.1627 164.215 47.1541C164.249 46.9974 164.3 46.8691 164.3 46.7438C164.309 46.0826 164.303 45.4215 164.306 44.7632C164.315 44.5323 164.326 44.3072 164.337 44.045ZM169.239 50.0808C169.217 50.2262 169.183 50.3345 169.183 50.4427C169.18 52.4233 169.18 54.4039 169.185 56.3845C169.185 56.4899 169.236 56.5925 169.259 56.6837C170.081 56.755 170.458 56.5612 170.73 55.863C170.86 55.5296 170.951 55.162 170.962 54.8057C170.993 53.8511 170.99 52.8935 170.962 51.9389C170.951 51.6055 170.863 51.2606 170.741 50.9472C170.472 50.2518 170.089 50.0381 169.239 50.0808ZM164.235 56.6866C164.34 56.0511 164.368 53.4493 164.309 50.5111C164.306 50.3801 164.283 50.249 164.272 50.1464C164.19 50.1036 164.153 50.0694 164.113 50.0637C163.538 49.9896 163.167 50.2889 162.903 50.7591C162.663 51.1865 162.589 51.6596 162.58 52.1412C162.566 52.9819 162.566 53.8254 162.58 54.6661C162.589 55.1449 162.671 55.6179 162.912 56.0454C163.198 56.5412 163.595 56.8234 164.235 56.6866Z" fill="white"/>
<path d="M201.709 44.0322C201.712 46.2579 201.712 48.4208 201.715 50.5895C202.166 50.7719 202.588 50.6893 202.976 50.675C203.197 50.4869 203.132 50.2675 203.135 50.0737C203.14 48.6374 203.138 47.2011 203.138 45.7649C203.138 45.3317 203.135 44.8985 203.14 44.4654C203.143 44.3314 203.166 44.2003 203.183 44.0465C203.713 43.904 204.231 43.9866 204.744 43.9695C205.266 43.9553 205.787 43.9638 206.308 43.9638C206.827 43.9638 207.348 43.9638 207.895 43.9638C207.935 44.1234 207.986 44.2459 207.992 44.3742C208.006 44.625 207.997 44.8757 207.997 45.1265C207.997 50.7121 207.997 56.2976 207.994 61.8831C207.994 62.151 208.023 62.4246 207.943 62.7096C207.836 62.7295 207.751 62.7552 207.666 62.7552C206.195 62.758 204.722 62.758 203.296 62.758C203.075 62.5899 203.126 62.3932 203.123 62.2194C203.118 61.1707 203.121 60.122 203.123 59.0733C203.123 57.9334 203.126 56.7935 203.126 55.6535C203.126 55.4284 203.112 55.2033 203.104 54.9639C202.664 54.7815 202.245 54.8585 201.828 54.887C201.658 55.1064 201.721 55.3429 201.721 55.5624C201.718 57.6826 201.721 59.8028 201.721 61.923C201.721 62.171 201.707 62.416 201.701 62.6839C201.585 62.7153 201.503 62.7552 201.42 62.7552C199.992 62.758 198.564 62.758 197.136 62.758C197.071 62.758 197.006 62.7324 196.907 62.7124C196.884 62.5899 196.85 62.4616 196.841 62.3334C196.83 62.151 196.839 61.9686 196.839 61.7862C196.841 56.1323 196.847 50.4784 196.853 44.8244C196.853 44.5765 196.867 44.3314 196.878 44.0493C197.011 44.0208 197.116 43.9809 197.221 43.9781C198.581 43.9724 199.941 43.9724 201.301 43.9752C201.406 43.9724 201.514 44.0037 201.709 44.0322Z" fill="white"/>
<path d="M139.866 62.7089C139.382 62.2244 139.251 61.6031 139.175 60.9648C139.135 60.6257 139.138 60.2837 139.138 59.9417C139.132 58.8474 139.141 57.7531 139.132 56.6617C139.13 56.4137 139.113 56.1572 139.059 55.9179C138.903 55.2453 138.5 54.9233 137.761 54.8378C137.582 54.966 137.636 55.1627 137.633 55.3365C137.625 56.6132 137.622 57.8899 137.619 59.1637C137.616 60.1441 137.616 61.1244 137.608 62.1047C137.605 62.3042 137.653 62.5179 137.52 62.6975C136.953 62.7744 133.428 62.7744 132.805 62.6889C132.788 62.5721 132.76 62.4438 132.754 62.3156C132.745 62.156 132.751 61.9964 132.751 61.8368C132.751 56.1857 132.751 50.5347 132.751 44.8836C132.751 44.6128 132.762 44.345 132.768 44.0571C132.884 44.0229 132.966 43.9774 133.049 43.9774C134.454 43.9717 135.857 43.9717 137.262 43.9717C137.35 43.9717 137.435 44.0058 137.512 44.0201C137.659 44.2709 137.605 44.5274 137.605 44.7724C137.616 46.8699 137.619 48.9644 137.628 51.0619C137.628 51.3098 137.602 51.5606 137.682 51.8456C137.939 51.8911 138.166 51.8228 138.381 51.6974C138.605 51.5691 138.764 51.3782 138.866 51.1417C138.996 50.8453 139.022 50.529 139.03 50.2069C139.062 48.953 139.09 47.702 139.144 46.4481C139.164 45.995 139.22 45.539 139.319 45.0973C139.387 44.7924 139.546 44.5074 139.685 44.2224C139.77 44.0457 139.931 43.966 140.133 43.966C140.269 43.966 140.405 43.9603 140.541 43.9603C141.561 43.9603 142.581 43.9574 143.601 43.9603C143.799 43.9603 143.998 43.9802 144.244 43.9945C144.134 44.2908 144.023 44.5359 143.949 44.7895C143.788 45.3395 143.754 45.9095 143.754 46.4823C143.76 47.6222 143.768 48.7621 143.762 49.8992C143.76 50.2155 143.731 50.5347 143.677 50.8481C143.502 51.8797 142.881 52.5608 141.943 52.9627C141.736 53.051 141.513 53.1023 141.3 53.1735C141.173 53.2163 141.048 53.2619 140.912 53.3075C140.954 53.4785 141.088 53.4272 141.173 53.4585C141.365 53.5241 141.564 53.5697 141.756 53.6409C142.992 54.0969 143.641 55.0031 143.754 56.3083C143.771 56.5135 143.765 56.7187 143.765 56.9238C143.762 57.813 143.762 58.7021 143.751 59.5912C143.74 60.6456 143.794 61.6858 144.27 62.6405C144.233 62.6775 144.222 62.6946 144.205 62.706C144.185 62.7174 144.165 62.7317 144.142 62.7317C142.805 62.7374 141.47 62.7402 140.133 62.7431C140.045 62.7488 139.957 62.7231 139.866 62.7089Z" fill="white"/>
<path d="M156.536 53.3627C156.499 55.0013 156.474 56.6428 156.417 58.2814C156.4 58.7545 156.344 59.2418 156.222 59.6977C155.893 60.9203 155.159 61.8436 154.046 62.4506C153.422 62.7897 152.751 62.9921 152.051 63.0861C150.776 63.2571 149.517 63.183 148.308 62.7128C146.777 62.1143 145.828 60.9858 145.48 59.3814C145.361 58.8286 145.321 58.2501 145.318 57.683C145.301 54.8132 145.304 51.9435 145.315 49.0738C145.318 48.5751 145.361 48.0707 145.44 47.5777C145.672 46.1129 146.446 45.0129 147.735 44.2919C148.316 43.967 148.942 43.7733 149.597 43.6764C150.798 43.4997 151.991 43.5367 153.156 43.91C155.102 44.537 156.295 46.0844 156.409 48.1704C156.474 49.3759 156.485 50.5842 156.511 51.7896C156.522 52.314 156.514 52.8384 156.514 53.3599C156.519 53.3627 156.528 53.3627 156.536 53.3627ZM150.147 53.3741C150.147 54.7648 150.144 56.1526 150.147 57.5433C150.147 58.0221 150.152 58.5008 150.175 58.9767C150.183 59.1791 150.22 59.3843 150.28 59.578C150.368 59.8573 150.623 60.0084 150.912 59.9884C151.249 59.9656 151.484 59.7604 151.529 59.3729C151.592 58.8086 151.643 58.2387 151.645 57.6716C151.657 54.7106 151.651 51.7497 151.651 48.7888C151.651 48.5609 151.657 48.3329 151.637 48.1049C151.611 47.8114 151.577 47.515 151.518 47.2272C151.461 46.9564 151.277 46.794 150.999 46.7598C150.719 46.7228 150.427 46.8596 150.325 47.1132C150.249 47.2984 150.2 47.5064 150.183 47.7059C150.155 48.0678 150.152 48.4326 150.149 48.7974C150.144 50.322 150.147 51.8495 150.147 53.3741Z" fill="white"/>
<path d="M92.9532 55.2617C92.9844 55.3756 93.0127 55.4412 93.0156 55.5039C93.0411 56.8034 92.9844 58.1 92.7804 59.3853C92.6274 60.3485 92.1655 61.1293 91.4316 61.7648C90.4852 62.5798 89.3801 63.0102 88.1559 63.1241C87.1132 63.221 86.0733 63.1669 85.056 62.8819C84.8605 62.8278 84.665 62.7679 84.4751 62.6938C82.9591 62.0982 82.0297 61.0239 81.769 59.3853C81.6217 58.4591 81.5367 57.5301 81.531 56.5953C81.514 54.3155 81.5168 52.0386 81.531 49.7588C81.5338 49.0976 81.5763 48.4365 81.6443 47.781C81.7804 46.4901 82.3867 45.4528 83.421 44.6776C84.2229 44.0763 85.141 43.7543 86.1214 43.6403C87.2747 43.5064 88.4308 43.5434 89.5557 43.8882C90.369 44.139 91.0972 44.5437 91.7093 45.1478C92.1712 45.6067 92.5055 46.1396 92.6614 46.7751C92.7435 47.1056 92.8314 47.439 92.8711 47.7753C93.0382 49.1575 93.0552 50.5481 93.0099 51.9388C93.0099 51.9787 92.9759 52.0186 92.9504 52.0728C92.8966 52.0956 92.8371 52.1412 92.7747 52.144C91.3466 52.1497 89.9184 52.1526 88.4931 52.1526C88.4081 52.1526 88.3203 52.1155 88.2466 52.0984C88.1106 51.8676 88.1645 51.6339 88.1616 51.4116C88.1531 50.3629 88.1616 49.3142 88.1474 48.2655C88.1418 47.9492 88.1078 47.6271 88.0454 47.3165C87.9633 46.9118 87.7309 46.7494 87.32 46.7466C86.8837 46.7437 86.6116 46.9289 86.5238 47.3365C86.4615 47.6243 86.4303 47.9207 86.402 48.2142C86.3821 48.4165 86.3906 48.6246 86.3906 48.8297C86.3906 51.8619 86.385 54.8912 86.3935 57.9233C86.3963 58.3992 86.4388 58.8809 86.5125 59.3482C86.5861 59.8156 86.9432 60.0493 87.3965 59.9809C87.7167 59.9324 87.9548 59.7643 88.0143 59.4337C88.0766 59.1003 88.1304 58.7583 88.1389 58.4192C88.1588 57.6441 88.1531 56.8689 88.1559 56.0938C88.1559 55.843 88.1559 55.5951 88.1559 55.3158C88.309 55.2816 88.4365 55.2332 88.5612 55.2332C89.9213 55.2275 91.2814 55.2303 92.6415 55.2303C92.7294 55.2303 92.8172 55.2474 92.9532 55.2617Z" fill="white"/>
<path d="M120.346 44.0209C120.354 44.3229 120.368 44.5709 120.371 44.8188C120.374 46.4375 120.371 48.0561 120.374 49.6748C120.374 49.8971 120.32 50.1279 120.473 50.3758C120.632 50.3872 120.805 50.41 120.983 50.4157C121.595 50.43 122.21 50.41 122.819 50.4556C123.426 50.5041 124.038 50.5753 124.633 50.7093C125.619 50.9344 126.273 51.5613 126.551 52.5417C126.667 52.9549 126.769 53.388 126.775 53.8155C126.798 55.6849 126.801 57.5544 126.769 59.421C126.761 59.8912 126.648 60.3728 126.514 60.8259C126.245 61.7264 125.639 62.3163 124.712 62.493C124.092 62.6127 123.457 62.684 122.828 62.721C122.128 62.7638 121.422 62.7495 120.72 62.7524C119.269 62.7552 117.818 62.7524 116.367 62.7524C116.118 62.7524 115.871 62.7524 115.594 62.7524C115.56 62.5956 115.52 62.4702 115.509 62.342C115.495 62.1596 115.503 61.9772 115.503 61.7948C115.503 56.1637 115.503 50.5326 115.503 44.9014C115.503 44.6307 115.512 44.36 115.517 44.0551C115.673 44.0209 115.798 43.9696 115.922 43.9696C117.26 43.9639 118.597 43.9639 119.935 43.9667C120.045 43.9696 120.156 43.9952 120.346 44.0209ZM120.382 59.4238C120.714 59.5606 120.961 59.4979 121.204 59.4609C121.581 59.4039 121.822 59.1788 121.876 58.794C121.924 58.4578 121.966 58.1158 121.972 57.7767C121.983 56.8676 121.983 55.9557 121.972 55.0437C121.966 54.7046 121.921 54.3627 121.879 54.0264C121.853 53.8155 121.757 53.6388 121.556 53.5334C121.315 53.408 120.833 53.3567 120.411 53.4251C120.399 53.5476 120.374 53.6787 120.374 53.8098C120.374 55.6735 120.36 57.5373 120.382 59.4238Z" fill="white"/>
<path d="M194.906 54.7974C193.886 54.9342 192.934 54.7718 191.965 54.9C191.857 55.3674 191.922 55.8205 191.908 56.2679C191.897 56.7011 191.902 57.1342 191.905 57.5674C191.908 58.0205 191.885 58.4736 191.931 58.9524C192.121 58.978 192.271 59.0151 192.424 59.0151C193.172 59.0208 193.92 59.0179 194.665 59.0179C194.889 59.0179 195.116 59.0265 195.368 59.0322C195.402 59.1832 195.459 59.3086 195.459 59.434C195.467 60.4143 195.464 61.3946 195.464 62.3721C195.464 62.4604 195.444 62.5488 195.436 62.6314C195.235 62.8224 194.997 62.754 194.778 62.754C193.124 62.7597 191.472 62.7568 189.817 62.7568C189.091 62.7568 188.366 62.7568 187.643 62.754C187.468 62.754 187.289 62.734 187.102 62.7198C186.986 62.4576 187.029 62.204 187.029 61.9617C187.026 59.3656 187.026 56.7666 187.026 54.1705C187.026 51.05 187.029 47.9266 187.031 44.8062C187.031 44.5611 187.048 44.3131 187.057 44.0567C187.32 43.9227 187.573 43.9655 187.813 43.9655C189.808 43.9626 191.8 43.9655 193.795 43.9655C194.067 43.9655 194.339 43.9626 194.611 43.9683C194.744 43.9712 194.875 43.994 195.025 44.0082C195.056 44.1108 195.099 44.1935 195.104 44.2789C195.178 45.3277 195.155 47.1173 195.062 47.6531C194.943 47.6673 194.815 47.693 194.685 47.693C193.96 47.6987 193.234 47.693 192.512 47.6987C192.336 47.6987 192.16 47.7186 191.996 47.73C191.885 48.2601 191.863 50.3233 191.953 51.201C192.067 51.2267 192.191 51.278 192.319 51.2808C192.954 51.2894 193.588 51.2837 194.223 51.2894C194.424 51.2922 194.623 51.3093 194.855 51.3207C194.98 51.7197 194.909 52.1044 194.923 52.4834C194.934 52.8482 194.929 53.213 194.926 53.5777C194.914 53.9596 194.909 54.3443 194.906 54.7974Z" fill="white"/>
<path d="M185.215 43.9995C185.309 44.6977 185.306 47.0573 185.215 47.6529C185.096 47.6672 184.969 47.6985 184.838 47.6985C184.135 47.7042 183.433 47.6985 182.73 47.7014C182.532 47.7014 182.33 47.7185 182.135 47.727C182.098 47.8239 182.056 47.8838 182.056 47.9465C182.053 48.9724 182.053 49.9983 182.056 51.0214C182.056 51.0841 182.098 51.1467 182.126 51.2265C182.594 51.3348 183.067 51.2664 183.54 51.2778C184.014 51.2892 184.49 51.2807 184.983 51.2807C185.025 51.4175 185.088 51.5201 185.088 51.6227C185.093 52.603 185.09 53.5833 185.088 54.5636C185.088 54.6263 185.051 54.689 185.017 54.7973C184.538 54.8999 184.042 54.8229 183.552 54.8457C183.081 54.8685 182.605 54.7973 182.107 54.9056C182.084 55.0509 182.05 55.182 182.044 55.3131C181.988 57.1911 182.016 58.4051 182.132 58.9608C182.268 58.9779 182.418 59.0149 182.571 59.0149C183.342 59.0206 184.113 59.0149 184.884 59.0178C185.107 59.0178 185.337 58.9779 185.578 59.0976C185.714 59.4795 185.626 59.8898 185.64 60.2945C185.654 60.6821 185.649 61.0696 185.643 61.4572C185.634 61.8619 185.683 62.2694 185.6 62.6997C185.464 62.7196 185.36 62.7453 185.252 62.751C183.611 62.8137 177.865 62.7709 177.264 62.6854C177.247 62.5715 177.219 62.4432 177.207 62.315C177.196 62.1782 177.204 62.0414 177.204 61.9046C177.204 56.2307 177.204 50.554 177.207 44.8801C177.207 44.6094 177.221 44.3415 177.227 44.0793C177.491 43.9112 177.749 43.9653 177.989 43.9653C179.576 43.9596 181.163 43.9625 182.747 43.9625C183.359 43.9625 183.971 43.9596 184.583 43.9653C184.782 43.9682 184.983 43.9853 185.215 43.9995Z" fill="white"/>
<path d="M103.163 59.0435C103.188 59.2259 103.211 59.3142 103.211 59.4026C103.208 60.4513 103.205 61.4971 103.197 62.5459C103.197 62.5858 103.163 62.6257 103.151 62.6484C103.126 62.6769 103.114 62.6997 103.095 62.7111C103.075 62.7225 103.052 62.7311 103.029 62.7311C102.871 62.7396 102.715 62.7539 102.556 62.751C100.04 62.7482 97.5266 62.7425 95.0104 62.7368C94.9679 62.7368 94.9282 62.7083 94.8376 62.6741C94.8206 62.5715 94.7922 62.4433 94.7837 62.315C94.7724 62.1782 94.7809 62.0414 94.7809 61.9047C94.7809 56.2308 94.7809 50.5569 94.7809 44.883C94.7809 44.6123 94.7922 44.3444 94.8007 44.105C95.0416 43.9084 95.2768 43.9683 95.495 43.9654C96.7417 43.9597 97.9885 43.9626 99.2325 43.9626C100.185 43.9626 101.137 43.9597 102.089 43.9626C102.313 43.9626 102.534 43.9797 102.78 43.9882C102.922 44.6237 102.842 45.2364 102.851 45.8434C102.859 46.4304 102.876 47.0203 102.831 47.6416C102.667 47.6615 102.536 47.69 102.406 47.69C101.681 47.6957 100.955 47.69 100.23 47.6957C100.051 47.6957 99.8757 47.7157 99.7028 47.7271C99.6688 47.8154 99.6263 47.8781 99.6235 47.9408C99.6178 48.9439 99.615 49.9471 99.6178 50.9473C99.6178 51.0328 99.6547 51.1212 99.6802 51.2408C100.649 51.3662 101.621 51.2067 102.604 51.3406C102.715 51.7424 102.653 52.13 102.664 52.509C102.675 52.8738 102.672 53.2385 102.664 53.6033C102.655 53.9852 102.704 54.3727 102.616 54.7831C101.638 54.9398 100.666 54.7518 99.6915 54.8942C99.6632 54.9997 99.6235 55.0823 99.6178 55.1678C99.5555 56.2365 99.5952 58.4479 99.6915 58.958C99.8275 58.978 99.9749 59.0179 100.125 59.0207C100.896 59.0264 101.667 59.0235 102.437 59.0235C102.667 59.0264 102.891 59.0378 103.163 59.0435Z" fill="white"/>
<path d="M106.591 47.7014C105.659 47.7014 104.778 47.7014 103.88 47.7014C103.84 47.5903 103.789 47.5105 103.789 47.4307C103.786 46.3592 103.789 45.2905 103.792 44.219C103.792 44.1763 103.815 44.1335 103.843 44.0452C103.948 44.0224 104.07 43.9853 104.197 43.9711C104.33 43.9568 104.469 43.9654 104.605 43.9654C107.595 43.9654 110.587 43.9625 113.576 43.9682C113.82 43.9682 114.072 43.9227 114.296 44.0338C114.404 44.5297 114.429 46.6755 114.338 47.6245C114.225 47.6473 114.1 47.6929 113.973 47.6957C113.361 47.7043 112.749 47.6986 112.137 47.7014C111.961 47.7014 111.783 47.7185 111.567 47.7299C111.55 47.9608 111.525 48.1603 111.525 48.3569C111.522 49.6108 111.522 50.8647 111.522 52.1157C111.522 55.373 111.522 58.6331 111.522 61.8904C111.522 62.1383 111.522 62.3863 111.522 62.6513C111.406 62.6883 111.324 62.7396 111.244 62.7396C109.793 62.7425 108.345 62.7425 106.895 62.7396C106.852 62.7396 106.807 62.7168 106.725 62.694C106.705 62.5829 106.665 62.4575 106.657 62.3293C106.645 62.1469 106.654 61.9645 106.654 61.7821C106.654 57.3849 106.654 52.9849 106.654 48.5877C106.654 48.3227 106.682 48.0491 106.591 47.7014Z" fill="white"/>
</g>
<defs>
<clipPath id="clip0">
<rect width="208" height="64" fill="white"/>
</clipPath>
</defs>
</svg>
