<svg width="62" height="62" viewBox="0 0 62 62" fill="none" xmlns="http://www.w3.org/2000/svg">
<path d="M30.8576 0.34895C13.8661 0.34895 0.0805664 14.1345 0.0805664 31.1259C0.0805664 48.1174 13.8661 61.9029 30.8576 61.9029C47.849 61.9029 61.6346 48.1174 61.6346 31.1259C61.6346 14.1345 47.849 0.34895 30.8576 0.34895ZM46.2461 33.33L24.4457 46.1538C24.0449 46.3942 23.6041 46.5144 23.1633 46.5144C22.7225 46.5144 22.2817 46.3942 21.8809 46.1938C21.0795 45.713 20.5986 44.8714 20.5986 43.9497V18.3022C20.5986 17.3805 21.0795 16.5389 21.8809 16.058C22.6824 15.6172 23.6843 15.6172 24.4457 16.0981L46.2461 28.9219C47.0475 29.3627 47.5284 30.2042 47.5284 31.1259C47.5284 32.0477 47.0475 32.8892 46.2461 33.33Z" fill="#EA1D19"/>
</svg>
