<svg width="237" height="257" viewBox="0 0 237 257" fill="none" xmlns="http://www.w3.org/2000/svg">
<g opacity="0.3">
<path d="M224.889 214.08C225.215 214.825 226.16 215.298 227.025 214.919L228.013 214.485C228.755 214.159 229.225 213.213 228.844 212.344L217.855 187.273L214.622 190.32L225.012 214.026L224.889 214.08Z" fill="#CBD0D8"/>
<path d="M227.737 215.198C225.265 216.283 225.191 221.495 227.476 226.708L236.375 222.802C234.09 217.589 230.209 214.113 227.737 215.198Z" fill="#CBD0D8"/>
<path d="M153.648 221.671C155.171 225.146 158.218 232.096 158.272 232.221C161.699 240.04 174.662 238.346 188.998 232.053C203.211 225.815 213.182 217.295 209.809 209.6C209.701 209.351 209.157 208.11 208.939 207.614L205.131 198.926L183.341 219.145L153.648 221.671Z" fill="#CBD0D8"/>
<path d="M182.075 216.593L218.314 181.596L168.619 187.573L132.033 219.763L182.075 216.593Z" fill="#CBD0D8"/>
</g>
<g opacity="0.3">
<g clip-path="url(#clip0)">
<path d="M62.7291 199.161L32.4413 216.661C32.1816 216.811 31.9737 216.931 31.744 217.133C33.2552 217.23 34.5009 217.827 35.1613 218.97C35.8217 220.113 35.7166 221.49 35.0459 222.848C35.2837 222.78 35.5435 222.63 35.8032 222.48L66.091 204.98C67.8054 203.989 68.6378 202.192 67.9474 200.997L67.0769 199.49C66.4165 198.347 64.4435 198.171 62.7291 199.161Z" fill="#CBD0D8"/>
<path d="M64.7357 207.911L34.4479 225.411C34.1881 225.561 33.9803 225.681 33.7506 225.883C35.2618 225.98 36.5075 226.577 37.1679 227.72C37.7982 228.811 37.7232 230.24 37.0525 231.598C37.2903 231.53 37.5501 231.379 37.8098 231.229L68.0976 213.729C69.812 212.739 70.6444 210.941 69.984 209.798L69.1135 208.292C68.4231 207.097 66.4501 206.92 64.7357 207.911Z" fill="#CBD0D8"/>
<path d="M29.5366 216.191L55.4605 201.213C56.9151 200.372 57.2996 198.279 56.279 196.513L54.9883 194.279C53.9977 192.564 51.9623 191.8 50.5077 192.641L24.5838 207.619C24.376 207.739 24.1982 207.911 24.0204 208.083C25.5559 208.582 26.9979 209.758 27.9284 211.369C28.8889 213.031 29.1579 214.816 28.8232 216.395C29.091 216.379 29.3288 216.311 29.5366 216.191Z" fill="#CBD0D8"/>
<path d="M54.4837 186.809C54.6638 187.121 55.1036 187.283 55.4673 187.072L55.8829 186.832C56.1946 186.652 56.3562 186.212 56.1461 185.849L50.0827 175.354L48.8024 176.856L54.5356 186.779L54.4837 186.809Z" fill="#CBD0D8"/>
<path d="M55.7952 187.16C54.7562 187.76 54.9755 190.059 56.2362 192.241L59.9768 190.08C58.716 187.898 56.8342 186.56 55.7952 187.16Z" fill="#CBD0D8"/>
<path d="M23.3934 193.685C24.2338 195.14 25.9148 198.049 25.9448 198.101C27.8359 201.374 33.4779 199.985 39.5042 196.503C45.4787 193.051 49.4697 188.805 47.6086 185.584C47.5486 185.48 47.2484 184.961 47.1284 184.753L45.0272 181.116L36.3825 191.1L23.3934 193.685Z" fill="#CBD0D8"/>
<path d="M35.7001 190.039L50.011 172.832L28.3563 177.929L13.7569 193.918L35.7001 190.039Z" fill="#CBD0D8"/>
</g>
</g>
<g opacity="0.3">
<g clip-path="url(#clip1)">
<path d="M150.711 39.029L149.637 39.6656L148.091 38.5875L147.42 38.9854L135.564 18.9927L132.88 20.5842L130.692 16.8943L109.894 29.2283L108.544 34.2913L103.454 33.0479L82.6559 45.3819L84.8442 49.0718L82.0265 50.7429L103.646 86.8916L137.593 66.7593L137.633 66.8263L146.84 79.1403L164.35 68.7559L159.416 57.9888L158.028 54.731L154.511 46.66L153.837 45.0647L156.453 43.513L150.711 39.029ZM127.578 68.5272L123.569 67.7308L104.717 78.911L85.221 46.0372L103.738 35.0559L108.507 36.2174L127.645 68.4874L127.578 68.5272ZM130.613 63.5531L129.389 67.4529L110.252 35.183L111.52 30.4406L130.037 19.4593L131.27 21.5391L143.127 41.5317L128.233 50.3645L128.437 52.2383L127.364 52.8749L128.651 60.0918L131.268 58.5401L132.384 59.9638L133.727 61.616L130.573 63.486L130.613 63.5531ZM161.773 67.9267L147.348 76.4809L143.788 71.7004L159.151 62.5891L161.773 67.9267ZM142.962 63.1215C141.451 60.5721 142.27 57.3658 144.819 55.8539C147.368 54.342 150.575 55.161 152.087 57.7104C152.166 57.8446 152.206 57.9117 152.286 58.0459C153.544 60.4736 152.645 63.5457 150.23 64.978C147.815 66.4104 144.688 65.7255 143.161 63.4569C143.082 63.3227 143.042 63.2557 142.962 63.1215ZM151.232 44.3423L152.727 47.6274L152.66 47.6672L148.299 50.2534L133.875 58.8076L131.709 55.9204L130.032 56.9151L129.539 53.9429L130.545 53.3461L130.341 51.4722L144.094 43.3158L147.918 41.048L149.131 41.8702L149.464 42.1261L150.471 41.5293L152.842 43.3875L151.232 44.3423Z" fill="#CBD0D8"/>
<path d="M124.32 48.9664C124.497 48.4992 124.579 48.1785 124.981 47.9398C125.451 47.6613 125.771 47.7432 126.266 47.8126C126.8 47.9491 127.442 48.1129 128.247 47.6355C129.052 47.1581 129.216 46.5168 129.419 45.9426C129.596 45.4753 129.677 45.1547 130.08 44.916C130.55 44.6375 130.87 44.7194 131.298 44.8286C131.832 44.9651 132.54 45.0891 133.346 44.6117C134.151 44.1342 134.314 43.493 134.518 42.9188C134.627 42.4913 134.709 42.1707 135.179 41.8921C135.648 41.6136 135.969 41.6955 136.464 41.765C136.998 41.9015 137.639 42.0653 138.444 41.5878L138.579 41.5083L138.022 40.569L137.887 40.6486C137.418 40.9271 137.097 40.8452 136.67 40.736C136.135 40.5995 135.494 40.4357 134.622 40.9529C133.817 41.4303 133.586 42.1114 133.449 42.6458C133.273 43.1131 133.258 43.3939 132.789 43.6724C132.319 43.9509 131.998 43.869 131.571 43.7598C131.036 43.6233 130.395 43.4595 129.523 43.9767C128.718 44.4542 128.487 45.1352 128.35 45.6696C128.174 46.1369 128.092 46.4575 127.69 46.6962C127.287 46.935 126.899 46.8929 126.472 46.7836C125.938 46.6471 125.296 46.4833 124.424 47.0006C123.619 47.478 123.388 48.159 123.252 48.6934C123.075 49.1607 122.993 49.4814 122.591 49.7201L122.457 49.7996L123.014 50.7389L123.148 50.6593C123.953 50.1819 124.184 49.5008 124.32 48.9664Z" fill="#CBD0D8"/>
<path d="M121.814 44.7399C121.99 44.2726 122.072 43.952 122.475 43.7133C122.944 43.4348 123.265 43.5167 123.76 43.5861C124.294 43.7226 124.935 43.8864 125.74 43.409C126.545 42.9315 126.709 42.2903 126.913 41.7161C127.089 41.2488 127.171 40.9282 127.573 40.6895C128.043 40.411 128.364 40.4929 128.791 40.6021C129.326 40.7386 130.034 40.8626 130.839 40.3852C131.644 39.9077 131.808 39.2665 132.012 38.6923C132.121 38.2648 132.203 37.9441 132.672 37.6656C133.142 37.3871 133.463 37.469 133.957 37.5385C134.491 37.675 135.133 37.8388 135.938 37.3613L136.072 37.2818L135.555 36.4096L135.421 36.4892C134.951 36.7677 134.63 36.6858 134.203 36.5766C133.668 36.4401 133.027 36.2762 132.155 36.7935C131.35 37.2709 131.119 37.952 130.983 38.4864C130.806 38.9536 130.791 39.2345 130.322 39.513C129.852 39.7915 129.532 39.7096 129.104 39.6004C128.57 39.4639 127.861 39.3399 127.056 39.8173C126.251 40.2947 126.02 40.9758 125.884 41.5102C125.707 41.9775 125.626 42.2981 125.223 42.5368C124.82 42.7755 124.433 42.7334 124.005 42.6242C123.471 42.4877 122.83 42.3239 121.957 42.8411C121.152 43.3186 120.921 43.9996 120.785 44.534C120.609 45.0013 120.527 45.3219 120.124 45.5607L119.99 45.6402L120.507 46.5124L120.641 46.4328C121.447 45.9554 121.677 45.2743 121.814 44.7399Z" fill="#CBD0D8"/>
<path d="M119.307 40.5133C119.484 40.046 119.566 39.7254 119.968 39.4867C120.438 39.2082 120.758 39.2901 121.253 39.3595C121.787 39.496 122.429 39.6598 123.234 39.1824C124.039 38.7049 124.203 38.0637 124.406 37.4895C124.515 37.062 124.597 36.7414 125.067 36.4629C125.536 36.1843 125.857 36.2663 126.285 36.3755C126.819 36.512 127.527 36.636 128.332 36.1585C129.138 35.6811 129.301 35.0398 129.505 34.4657C129.614 34.0382 129.696 33.7175 130.166 33.439C130.635 33.1605 130.956 33.2424 131.451 33.3118C131.985 33.4484 132.626 33.6122 133.431 33.1347L133.565 33.0551L133.008 32.1159L132.874 32.1955C132.405 32.474 132.084 32.3921 131.656 32.2829C131.122 32.1464 130.481 31.9825 129.609 32.4998C128.804 32.9772 128.573 33.6583 128.436 34.1927C128.26 34.6599 128.245 34.9408 127.775 35.2193C127.306 35.4978 126.985 35.4159 126.558 35.3067C126.023 35.1702 125.382 35.0064 124.51 35.5236C123.705 36.001 123.474 36.6821 123.337 37.2165C123.161 37.6838 123.079 38.0044 122.677 38.2431C122.274 38.4818 121.886 38.4397 121.459 38.3305C120.924 38.194 120.283 38.0302 119.411 38.5474C118.606 39.0249 118.375 39.7059 118.239 40.2403C118.062 40.7076 117.98 41.0282 117.578 41.267L117.444 41.3465L118.001 42.2858L118.135 42.2062C118.94 41.7288 119.171 41.0477 119.307 40.5133Z" fill="#CBD0D8"/>
<path d="M116.801 36.2865C116.977 35.8192 117.059 35.4986 117.461 35.2599C117.931 34.9814 118.252 35.0633 118.746 35.1327C119.281 35.2692 119.922 35.433 120.727 34.9556C121.532 34.4781 121.696 33.8369 121.899 33.2627C122.076 32.7954 122.158 32.4748 122.56 32.236C123.03 31.9575 123.35 32.0394 123.778 32.1486C124.312 32.2852 125.021 32.4092 125.826 31.9317C126.631 31.4543 126.795 30.813 126.998 30.2389C127.107 29.8114 127.189 29.4907 127.659 29.2122C128.129 28.9337 128.449 29.0156 128.944 29.085C129.478 29.2215 130.119 29.3854 130.925 28.9079L131.059 28.8283L130.502 27.8891L130.368 27.9687C129.898 28.2472 129.577 28.1653 129.15 28.0561C128.615 27.9195 127.974 27.7557 127.102 28.273C126.297 28.7504 126.066 29.4315 125.929 29.9658C125.753 30.4331 125.738 30.714 125.269 30.9925C124.799 31.271 124.479 31.1891 124.051 31.0799C123.517 30.9434 122.875 30.7796 122.003 31.2968C121.198 31.7742 120.967 32.4553 120.831 32.9897C120.654 33.457 120.573 33.7776 120.17 34.0163C119.767 34.255 119.38 34.2129 118.952 34.1037C118.418 33.9672 117.777 33.8034 116.904 34.3206C116.099 34.7981 115.868 35.4791 115.732 36.0135C115.556 36.4808 115.474 36.8014 115.071 37.0401L114.937 37.1197L115.494 38.059L115.628 37.9794C116.433 37.5019 116.664 36.8209 116.801 36.2865Z" fill="#CBD0D8"/>
<path d="M118.47 62.9557C117.935 62.8192 117.294 62.6554 116.422 63.1726C115.617 63.6501 115.386 64.3311 115.25 64.8655C115.14 65.293 115.058 65.6136 114.589 65.8921C114.119 66.1707 113.799 66.0888 113.371 65.9795C112.837 65.843 112.195 65.6792 111.323 66.1965C110.518 66.6739 110.287 67.3549 110.151 67.8893C109.974 68.3566 109.893 68.6772 109.49 68.916C109.02 69.1945 108.7 69.1126 108.272 69.0034C107.738 68.8669 107.097 68.703 106.224 69.2203C105.419 69.6977 105.188 70.3788 105.052 70.9132C104.876 71.3804 104.794 71.7011 104.391 71.9398L104.257 72.0194L104.814 72.9586L104.948 72.879C105.753 72.4016 105.917 71.7603 106.121 71.1862C106.297 70.7189 106.379 70.3983 106.781 70.1595C107.251 69.881 107.572 69.9629 108.066 70.0323C108.601 70.1689 109.242 70.3327 110.047 69.8552C110.852 69.3778 111.016 68.7365 111.22 68.1624C111.329 67.7348 111.478 67.3744 111.88 67.1357C112.35 66.8572 112.671 66.9391 113.098 67.0483C113.632 67.1848 114.341 67.3088 115.146 66.8314C115.951 66.354 116.115 65.7127 116.318 65.1385C116.428 64.711 116.509 64.3904 116.979 64.1119C117.449 63.8334 117.769 63.9153 118.197 64.0245C118.731 64.161 119.372 64.3248 120.178 63.8474L120.379 63.728L119.822 62.7887L119.688 62.8683C119.285 63.107 118.937 63.132 118.47 62.9557Z" fill="#CBD0D8"/>
<path d="M115.963 58.7292C115.429 58.5926 114.788 58.4288 113.916 58.9461C113.11 59.4235 112.88 60.1046 112.743 60.6389C112.634 61.0664 112.552 61.3871 112.082 61.6656C111.613 61.9441 111.292 61.8622 110.865 61.753C110.33 61.6165 109.689 61.4527 108.817 61.9699C108.012 62.4473 107.781 63.1284 107.644 63.6628C107.468 64.1301 107.386 64.4507 106.984 64.6894C106.514 64.9679 106.193 64.886 105.766 64.7768C105.231 64.6403 104.59 64.4765 103.718 64.9937C102.913 65.4712 102.682 66.1522 102.545 66.6866C102.369 67.1539 102.287 67.4745 101.885 67.7132L101.751 67.7928L102.308 68.7321L102.442 68.6525C103.247 68.175 103.411 67.5338 103.614 66.9596C103.791 66.4923 103.872 66.1717 104.275 65.933C104.745 65.6545 105.065 65.7364 105.56 65.8058C106.094 65.9423 106.735 66.1061 107.541 65.6287C108.346 65.1512 108.509 64.51 108.713 63.9358C108.822 63.5083 108.971 63.1479 109.374 62.9091C109.843 62.6306 110.164 62.7125 110.592 62.8217C111.126 62.9583 111.834 63.0823 112.639 62.6048C113.444 62.1274 113.608 61.4861 113.812 60.912C113.921 60.4845 114.003 60.1638 114.473 59.8853C114.942 59.6068 115.263 59.6887 115.69 59.7979C116.225 59.9344 116.866 60.0982 117.671 59.6208L117.872 59.5014L117.315 58.5622L117.181 58.6418C116.779 58.8805 116.431 58.9055 115.963 58.7292Z" fill="#CBD0D8"/>
<path d="M113.457 54.5023C112.922 54.3658 112.281 54.202 111.409 54.7193C110.604 55.1967 110.373 55.8777 110.236 56.4121C110.127 56.8396 110.045 57.1603 109.576 57.4388C109.106 57.7173 108.785 57.6354 108.358 57.5262C107.823 57.3897 107.182 57.2258 106.31 57.7431C105.505 58.2205 105.274 58.9016 105.138 59.436C104.961 59.9032 104.879 60.2239 104.477 60.4626C104.007 60.7411 103.687 60.6592 103.259 60.55C102.725 60.4135 102.083 60.2497 101.211 60.7669C100.406 61.2443 100.175 61.9254 100.039 62.4598C99.9694 62.9544 99.8477 63.2079 99.4451 63.4466L99.311 63.5262L99.868 64.4655L100.002 64.3859C100.807 63.9084 100.971 63.2672 101.175 62.693C101.351 62.2257 101.433 61.9051 101.835 61.6664C102.305 61.3879 102.626 61.4698 103.12 61.5392C103.655 61.6757 104.296 61.8395 105.101 61.3621C105.906 60.8846 106.07 60.2434 106.273 59.6692C106.383 59.2417 106.532 58.8813 106.934 58.6425C107.404 58.364 107.724 58.4459 108.152 58.5551C108.686 58.6917 109.395 58.8157 110.2 58.3382C111.005 57.8608 111.169 57.2195 111.372 56.6454C111.481 56.2179 111.563 55.8972 112.033 55.6187C112.503 55.3402 112.823 55.4221 113.251 55.5313C113.785 55.6678 114.426 55.8316 115.231 55.3542L115.366 55.2746L114.809 54.3354L114.674 54.4149C114.272 54.6537 113.924 54.6786 113.457 54.5023Z" fill="#CBD0D8"/>
<path d="M110.95 50.2758C110.456 50.2064 109.747 50.0824 108.942 50.5598C108.137 51.0373 107.906 51.7183 107.77 52.2527C107.66 52.6802 107.579 53.0008 107.109 53.2794C106.639 53.5579 106.319 53.476 105.891 53.3668C105.357 53.2302 104.715 53.0664 103.843 53.5837C103.038 54.0611 102.807 54.7422 102.671 55.2765C102.495 55.7438 102.413 56.0645 102.01 56.3032C101.54 56.5817 101.22 56.4998 100.792 56.3906C100.258 56.2541 99.6167 56.0903 98.7445 56.6075C97.9395 57.0849 97.7086 57.766 97.5721 58.3004C97.3958 58.7677 97.3139 59.0883 96.9113 59.327L96.7771 59.4066L97.2944 60.2787L97.4286 60.1992C98.2336 59.7217 98.3974 59.0805 98.601 58.5063C98.7773 58.039 98.8592 57.7184 99.2618 57.4796C99.7314 57.2011 100.052 57.283 100.547 57.3525C101.081 57.489 101.722 57.6528 102.527 57.1753C103.332 56.6979 103.496 56.0566 103.7 55.4825C103.809 55.055 103.958 54.6945 104.361 54.4558C104.83 54.1773 105.151 54.2592 105.578 54.3684C106.113 54.5049 106.821 54.629 107.626 54.1515C108.431 53.6741 108.595 53.0328 108.799 52.4586C108.908 52.0311 108.99 51.7105 109.459 51.432C109.929 51.1535 110.25 51.2354 110.677 51.3446C111.212 51.4811 111.853 51.6449 112.658 51.1675L112.859 51.0481L112.342 50.176L112.208 50.2555C111.805 50.4943 111.417 50.4521 110.95 50.2758Z" fill="#CBD0D8"/>
<path d="M108.483 46.1164C107.949 45.9799 107.308 45.816 106.435 46.3333C105.63 46.8107 105.399 47.4918 105.263 48.0261C105.154 48.4537 105.072 48.7743 104.602 49.0528C104.133 49.3313 103.812 49.2494 103.384 49.1402C102.85 49.0037 102.209 48.8399 101.337 49.3571C100.532 49.8345 100.301 50.5156 100.164 51.05C99.9879 51.5173 99.906 51.8379 99.5035 52.0766C99.0338 52.3551 98.7132 52.2732 98.2857 52.164C97.7513 52.0275 97.1101 51.8637 96.2379 52.3809C95.4328 52.8584 95.2019 53.5394 95.0654 54.0738C94.8891 54.5411 94.8072 54.8617 94.4047 55.1004L94.2705 55.18L94.8275 56.1193L94.9617 56.0397C95.7668 55.5622 95.9306 54.921 96.1342 54.3468C96.3105 53.8795 96.3924 53.5589 96.7949 53.3202C97.2645 53.0417 97.5852 53.1236 98.0798 53.193C98.6141 53.3295 99.2554 53.4933 100.06 53.0159C100.866 52.5384 101.029 51.8972 101.233 51.323C101.342 50.8955 101.491 50.5351 101.894 50.2963C102.363 50.0178 102.684 50.0997 103.111 50.209C103.646 50.3455 104.354 50.4695 105.159 49.992C105.964 49.5146 106.128 48.8733 106.332 48.2992C106.441 47.8717 106.523 47.551 106.992 47.2725C107.462 46.994 107.783 47.0759 108.21 47.1851C108.745 47.3216 109.386 47.4855 110.191 47.008L110.392 46.8886L109.835 45.9494L109.701 46.029C109.299 46.2677 108.911 46.2256 108.483 46.1164Z" fill="#CBD0D8"/>
<path d="M105.977 41.8898C105.442 41.7533 104.801 41.5895 103.929 42.1067C103.124 42.5842 102.893 43.2652 102.756 43.7996C102.647 44.2271 102.565 44.5477 102.096 44.8262C101.626 45.1047 101.305 45.0228 100.878 44.9136C100.344 44.7771 99.7023 44.6133 98.8302 45.1305C98.0251 45.608 97.7942 46.289 97.6577 46.8234C97.4814 47.2907 97.3995 47.6113 96.9969 47.8501C96.5273 48.1286 96.2067 48.0467 95.7792 47.9375C95.2448 47.8009 94.6035 47.6371 93.7314 48.1544C92.9263 48.6318 92.6954 49.3129 92.5589 49.8472C92.3826 50.3145 92.3007 50.6352 91.8981 50.8739L91.764 50.9535L92.321 51.8927L92.4552 51.8131C93.2602 51.3357 93.424 50.6944 93.6276 50.1203C93.8039 49.653 93.8858 49.3323 94.2884 49.0936C94.758 48.8151 95.0786 48.897 95.5732 48.9664C96.1076 49.1029 96.7489 49.2668 97.554 48.7893C98.359 48.3119 98.5228 47.6706 98.7264 47.0964C98.8356 46.6689 98.9846 46.3085 99.3872 46.0698C99.8568 45.7913 100.177 45.8732 100.605 45.9824C101.139 46.1189 101.848 46.2429 102.653 45.7655C103.458 45.288 103.622 44.6468 103.825 44.0726C103.934 43.6451 104.016 43.3245 104.486 43.046C104.956 42.7675 105.276 42.8494 105.704 42.9586C106.238 43.0951 106.879 43.2589 107.684 42.7814L107.886 42.6621L107.329 41.7228L107.195 41.8024C106.792 42.0411 106.404 41.999 105.977 41.8898Z" fill="#CBD0D8"/>
</g>
</g>
<defs>
<clipPath id="clip0">
<rect y="190.017" width="60" height="60" transform="rotate(-30.0189 0 190.017)" fill="white"/>
</clipPath>
<clipPath id="clip1">
<rect x="68.9999" y="39.7871" width="78" height="78" transform="rotate(-30.67 68.9999 39.7871)" fill="white"/>
</clipPath>
</defs>
</svg>
