<svg width="253" height="236" viewBox="0 0 253 236" fill="none" xmlns="http://www.w3.org/2000/svg">
<g opacity="0.3">
<path d="M169.942 220.691C169.753 221.482 170.222 222.429 171.141 222.647L172.191 222.897C172.979 223.084 173.924 222.612 174.144 221.689L180.486 195.06L176.07 195.543L170.073 220.722L169.942 220.691Z" fill="#CBD0D8"/>
<path d="M171.541 223.299C168.914 222.675 165.714 226.79 164.396 232.326L173.851 234.573C175.169 229.036 174.167 223.923 171.541 223.299Z" fill="#CBD0D8"/>
<path d="M108.519 183.811C107.64 187.502 105.882 194.884 105.851 195.016C103.873 203.321 115.237 209.782 130.47 213.401C145.571 216.989 158.663 216.2 160.609 208.027C160.672 207.763 160.986 206.445 161.112 205.917L163.309 196.69L133.735 199.691L108.519 183.811Z" fill="#CBD0D8"/>
<path d="M134.263 196.892L184.274 190.807L141.016 165.625L92.421 169.261L134.263 196.892Z" fill="#CBD0D8"/>
</g>
<g opacity="0.3">
<g clip-path="url(#clip0)">
<path d="M217.948 91.6414L173.889 72.5545C173.511 72.3908 173.208 72.2599 172.798 72.1718C173.926 73.9173 174.287 75.7788 173.567 77.4415C172.846 79.1041 171.242 80.1144 169.196 80.4849C169.466 80.6914 169.844 80.8551 170.222 81.0188L214.281 100.106C216.775 101.186 219.438 100.634 220.191 98.8959L221.14 96.7043C221.861 95.0417 220.442 92.7218 217.948 91.6414Z" fill="#CBD0D8"/>
<path d="M209.941 101.008L165.882 81.9212C165.504 81.7575 165.201 81.6266 164.791 81.5385C165.919 83.284 166.28 85.1455 165.56 86.8082C164.872 88.3952 163.235 89.4811 161.189 89.8516C161.459 90.0581 161.837 90.2218 162.215 90.3855L206.274 109.472C208.768 110.553 211.431 110.001 212.151 108.338L213.101 106.147C213.854 104.408 212.435 102.089 209.941 101.008Z" fill="#CBD0D8"/>
<path d="M172.032 68.9678L209.743 85.3046C211.859 86.2213 214.481 84.9338 215.594 82.3643L217.002 79.1146C218.083 76.6207 217.261 73.7516 215.145 72.8349L177.434 56.4981C177.131 56.3671 176.796 56.3118 176.461 56.2564C177.167 58.3572 177.049 60.9089 176.034 63.2517C174.986 65.6701 173.238 67.4261 171.223 68.3482C171.46 68.6303 171.729 68.8369 172.032 68.9678Z" fill="#CBD0D8"/>
<path d="M224.826 72.4508C224.629 72.9042 224.811 73.5214 225.34 73.7505L225.944 74.0124C226.398 74.2089 227.015 74.0274 227.244 73.4984L233.857 58.2325L231.154 58.0489L224.901 72.4835L224.826 72.4508Z" fill="#CBD0D8"/>
<path d="M225.511 74.184C223.999 73.5292 221.644 75.6505 220.269 78.8246L225.711 81.1818C227.086 78.0077 227.022 74.8388 225.511 74.184Z" fill="#CBD0D8"/>
<path d="M191.823 43.7931C190.907 45.9092 189.073 50.1413 189.041 50.2169C186.978 54.9781 193.122 60.0633 201.889 63.861C210.58 67.626 218.525 68.5547 220.555 63.8691C220.62 63.7179 220.948 62.9622 221.079 62.6599L223.371 57.3697L205.294 56.0013L191.823 43.7931Z" fill="#CBD0D8"/>
<path d="M205.906 54.3813L236.58 56.0909L213.254 36.3821L183.688 33.3575L205.906 54.3813Z" fill="#CBD0D8"/>
</g>
</g>
<g opacity="0.3">
<g clip-path="url(#clip1)">
<path d="M81.3211 40.3744L80.1854 40.8919L78.7641 39.6538L78.0543 39.9773L68.4161 18.8257L65.5769 20.1194L63.7981 16.2156L41.7948 26.242L39.908 31.1304L34.9809 29.3469L12.9776 39.3733L14.7564 43.2771L11.7754 44.6355L29.3826 82.8991L65.2976 66.5335L65.33 66.6045L73.1598 79.8371L91.6851 71.3955L87.937 60.1603L86.9074 56.7722L84.2787 48.3698L83.78 46.7113L86.5482 45.4499L81.3211 40.3744ZM55.1505 67.2144L51.2503 65.9915L31.3054 75.0799L15.4573 40.3005L35.0473 31.3738L39.6644 33.0414L55.2215 67.182L55.1505 67.2144ZM58.703 62.5955L57.0669 66.3411L41.5099 32.2005L43.2808 27.622L62.8708 18.6954L63.8735 20.8957L73.5117 42.0472L57.7545 49.2274L57.7563 51.1123L56.6206 51.6298L57.1245 58.9432L59.8927 57.6819L60.8495 59.2173L62.0067 61.0044L58.6707 62.5245L58.703 62.5955ZM89.2117 70.294L73.9513 77.2477L70.9254 72.1121L87.1795 64.7055L89.2117 70.294ZM71.0271 63.4942C69.7981 60.797 70.9571 57.6973 73.6543 56.4683C76.3515 55.2393 79.4511 56.3983 80.6802 59.0955C80.7448 59.2375 80.7772 59.3084 80.8419 59.4504C81.8319 61.9993 80.6082 64.957 78.053 66.1214C75.4977 67.2857 72.4628 66.2686 71.1888 63.849C71.1241 63.7071 71.0918 63.6361 71.0271 63.4942ZM81.268 45.713L82.4009 49.1398L82.3299 49.1721L77.7163 51.2744L62.456 58.2282L60.6133 55.1249L58.8388 55.9335L58.6682 52.9254L59.7328 52.4403L59.7311 50.5553L74.2816 43.925L78.3274 42.0815L79.4451 43.0293L79.7487 43.3195L80.8134 42.8344L82.9715 44.9368L81.268 45.713Z" fill="#CBD0D8"/>
<path d="M54.0151 47.417C54.2407 46.9713 54.3566 46.6614 54.7824 46.4673C55.2793 46.2409 55.5893 46.3568 56.0735 46.479C56.5901 46.6722 57.2101 46.904 58.0618 46.5159C58.9135 46.1278 59.1454 45.5078 59.4095 44.9589C59.635 44.5133 59.7509 44.2033 60.1768 44.0092C60.6737 43.7828 60.9836 43.8987 61.3969 44.0533C61.9135 44.2464 62.6044 44.4459 63.4562 44.0578C64.3079 43.6697 64.5397 43.0498 64.8039 42.5008C64.9584 42.0875 65.0743 41.7776 65.5712 41.5512C66.068 41.3248 66.378 41.4407 66.8622 41.5629C67.3788 41.756 67.9988 41.9878 68.8505 41.5997L68.9925 41.535L68.5397 40.5413L68.3977 40.606C67.9009 40.8324 67.5909 40.7165 67.1776 40.562C66.661 40.3688 66.0411 40.137 65.1184 40.5575C64.2666 40.9456 63.9638 41.5978 63.7706 42.1145C63.5451 42.5601 63.5002 42.8377 63.0034 43.0641C62.5065 43.2905 62.1965 43.1746 61.7833 43.0201C61.2666 42.8269 60.6467 42.5951 59.724 43.0155C58.8723 43.4037 58.5695 44.0559 58.3763 44.5725C58.1508 45.0182 58.0349 45.3281 57.609 45.5222C57.1831 45.7162 56.8022 45.6327 56.3889 45.4781C55.8723 45.285 55.2524 45.0531 54.3296 45.4736C53.4779 45.8617 53.1751 46.514 52.9819 47.0306C52.7564 47.4762 52.6405 47.7862 52.2146 47.9803L52.0727 48.0449L52.5255 49.0386L52.6674 48.974C53.5192 48.5858 53.822 47.9336 54.0151 47.417Z" fill="#CBD0D8"/>
<path d="M51.9776 42.9453C52.2031 42.4997 52.319 42.1898 52.7449 41.9957C53.2417 41.7693 53.5517 41.8852 54.036 42.0074C54.5526 42.2006 55.1725 42.4324 56.0242 42.0443C56.876 41.6561 57.1078 41.0362 57.3719 40.4873C57.5975 40.0416 57.7134 39.7317 58.1392 39.5376C58.6361 39.3112 58.9461 39.4271 59.3593 39.5817C59.8759 39.7748 60.5669 39.9743 61.4186 39.5862C62.2703 39.1981 62.5021 38.5781 62.7663 38.0292C62.9208 37.6159 63.0367 37.3059 63.5336 37.0795C64.0304 36.8531 64.3404 36.969 64.8247 37.0912C65.3413 37.2844 65.9612 37.5162 66.813 37.1281L66.9549 37.0634L66.5344 36.1407L66.3925 36.2054C65.8956 36.4318 65.5857 36.3159 65.1724 36.1614C64.6558 35.9682 64.0359 35.7364 63.1131 36.1568C62.2614 36.5449 61.9586 37.1972 61.7654 37.7138C61.5399 38.1595 61.495 38.4371 60.9981 38.6635C60.5013 38.8899 60.1913 38.774 59.778 38.6194C59.2614 38.4263 58.5705 38.2268 57.7188 38.6149C56.867 39.003 56.5642 39.6553 56.3711 40.1719C56.1456 40.6175 56.0296 40.9275 55.6038 41.1215C55.1779 41.3156 54.797 41.232 54.3837 41.0775C53.8671 40.8843 53.2471 40.6525 52.3244 41.073C51.4727 41.4611 51.1699 42.1134 50.9767 42.63C50.7512 43.0756 50.6353 43.3856 50.2094 43.5796L50.0675 43.6443L50.4879 44.567L50.6299 44.5023C51.4816 44.1142 51.7844 43.462 51.9776 42.9453Z" fill="#CBD0D8"/>
<path d="M49.94 38.4736C50.1655 38.028 50.2814 37.718 50.7073 37.5239C51.2041 37.2975 51.5141 37.4135 51.9983 37.5357C52.5149 37.7288 53.1349 37.9606 53.9866 37.5725C54.8383 37.1844 55.0702 36.5645 55.3343 36.0155C55.4889 35.6022 55.6048 35.2923 56.1016 35.0659C56.5985 34.8395 56.9084 34.9554 57.3217 35.1099C57.8383 35.3031 58.5292 35.5026 59.381 35.1144C60.2327 34.7263 60.4645 34.1064 60.7287 33.5575C60.8832 33.1442 60.9991 32.8342 61.496 32.6078C61.9928 32.3814 62.3028 32.4973 62.787 32.6195C63.3037 32.8127 63.9236 33.0445 64.7753 32.6564L64.9173 32.5917L64.4645 31.598L64.3225 31.6627C63.8257 31.8891 63.5157 31.7732 63.1024 31.6186C62.5858 31.4255 61.9659 31.1936 61.0432 31.6141C60.1914 32.0022 59.8886 32.6545 59.6955 33.1711C59.4699 33.6167 59.425 33.8943 58.9282 34.1208C58.4313 34.3472 58.1213 34.2312 57.7081 34.0767C57.1915 33.8835 56.5715 33.6517 55.6488 34.0722C54.7971 34.4603 54.4943 35.1126 54.3011 35.6292C54.0756 36.0748 53.9597 36.3848 53.5338 36.5788C53.1079 36.7729 52.727 36.6893 52.3137 36.5348C51.7971 36.3416 51.1772 36.1098 50.2544 36.5303C49.4027 36.9184 49.0999 37.5706 48.9067 38.0872C48.6812 38.5329 48.5653 38.8428 48.1394 39.0369L47.9975 39.1016L48.4503 40.0953L48.5922 40.0306C49.444 39.6425 49.7468 38.9902 49.94 38.4736Z" fill="#CBD0D8"/>
<path d="M47.9023 34.0019C48.1278 33.5563 48.2437 33.2463 48.6696 33.0523C49.1664 32.8259 49.4764 32.9418 49.9607 33.064C50.4773 33.2571 51.0972 33.489 51.9489 33.1008C52.8007 32.7127 53.0325 32.0928 53.2967 31.5438C53.5222 31.0982 53.6381 30.7883 54.0639 30.5942C54.5608 30.3678 54.8708 30.4837 55.284 30.6382C55.8007 30.8314 56.4916 31.0309 57.3433 30.6428C58.195 30.2546 58.4269 29.6347 58.691 29.0858C58.8455 28.6725 58.9615 28.3625 59.4583 28.1361C59.9552 27.9097 60.2651 28.0256 60.7494 28.1478C61.266 28.341 61.8859 28.5728 62.7377 28.1847L62.8796 28.12L62.4268 27.1263L62.2849 27.191C61.788 27.4174 61.478 27.3015 61.0648 27.1469C60.5482 26.9538 59.9282 26.722 59.0055 27.1424C58.1538 27.5305 57.851 28.1828 57.6578 28.6994C57.4323 29.145 57.3874 29.4227 56.8905 29.6491C56.3937 29.8755 56.0837 29.7596 55.6704 29.605C55.1538 29.4118 54.5339 29.18 53.6111 29.6005C52.7594 29.9886 52.4566 30.6409 52.2634 31.1575C52.0379 31.6031 51.922 31.9131 51.4961 32.1071C51.0703 32.3012 50.6893 32.2176 50.276 32.0631C49.7594 31.8699 49.1395 31.6381 48.2168 32.0586C47.365 32.4467 47.0623 33.099 46.8691 33.6156C46.6436 34.0612 46.5277 34.3712 46.1018 34.5652L45.9598 34.6299L46.4126 35.6236L46.5546 35.5589C47.4063 35.1708 47.7091 34.5185 47.9023 34.0019Z" fill="#CBD0D8"/>
<path d="M46.6943 60.6958C46.1777 60.5026 45.5578 60.2708 44.6351 60.6913C43.7833 61.0794 43.4805 61.7316 43.2874 62.2482C43.1328 62.6615 43.0169 62.9715 42.5201 63.1979C42.0232 63.4243 41.7133 63.3084 41.3 63.1539C40.7834 62.9607 40.1634 62.7289 39.2407 63.1493C38.389 63.5374 38.0862 64.1897 37.893 64.7063C37.6675 65.1519 37.5516 65.4619 37.1257 65.656C36.6289 65.8824 36.3189 65.7665 35.9056 65.6119C35.389 65.4188 34.7691 65.1869 33.8464 65.6074C32.9946 65.9955 32.6918 66.6478 32.4987 67.1644C32.2731 67.61 32.1572 67.92 31.7314 68.114L31.5894 68.1787L32.0422 69.1724L32.1842 69.1077C33.0359 68.7196 33.2677 68.0997 33.5319 67.5507C33.7574 67.1051 33.8733 66.7952 34.2992 66.6011C34.796 66.3747 35.106 66.4906 35.5902 66.6128C36.1069 66.806 36.7268 67.0378 37.5785 66.6497C38.4303 66.2615 38.6621 65.6416 38.9262 65.0927C39.0808 64.6794 39.2677 64.3371 39.6935 64.143C40.1904 63.9166 40.5003 64.0325 40.9136 64.1871C41.4302 64.3802 42.1211 64.5797 42.9729 64.1916C43.8246 63.8035 44.0564 63.1835 44.3206 62.6346C44.4751 62.2213 44.591 61.9113 45.0879 61.6849C45.5847 61.4585 45.8947 61.5745 46.308 61.729C46.8246 61.9222 47.4445 62.154 48.2962 61.7659L48.5092 61.6688L48.0564 60.6751L47.9144 60.7398C47.4886 60.9339 47.14 60.9213 46.6943 60.6958Z" fill="#CBD0D8"/>
<path d="M44.6568 56.2243C44.1402 56.0312 43.5202 55.7994 42.5975 56.2198C41.7458 56.6079 41.443 57.2602 41.2498 57.7768C41.0953 58.1901 40.9794 58.5001 40.4825 58.7265C39.9857 58.9529 39.6757 58.837 39.2624 58.6824C38.7458 58.4892 38.1259 58.2574 37.2032 58.6779C36.3514 59.066 36.0486 59.7183 35.8554 60.2349C35.6299 60.6805 35.514 60.9905 35.0882 61.1845C34.5913 61.4109 34.2813 61.295 33.8681 61.1405C33.3514 60.9473 32.7315 60.7155 31.8088 61.136C30.9571 61.5241 30.6543 62.1764 30.4611 62.693C30.2356 63.1386 30.1197 63.4486 29.6938 63.6426L29.5518 63.7073L30.0046 64.701L30.1466 64.6363C30.9983 64.2482 31.2302 63.6283 31.4943 63.0793C31.7198 62.6337 31.8357 62.3237 32.2616 62.1297C32.7585 61.9033 33.0684 62.0192 33.5527 62.1414C34.0693 62.3345 34.6892 62.5663 35.541 62.1782C36.3927 61.7901 36.6245 61.1702 36.8887 60.6212C37.0432 60.208 37.2301 59.8656 37.656 59.6716C38.1528 59.4452 38.4628 59.5611 38.8761 59.7156C39.3927 59.9088 40.0836 60.1083 40.9353 59.7202C41.787 59.332 42.0189 58.7121 42.283 58.1632C42.4376 57.7499 42.5535 57.4399 43.0503 57.2135C43.5472 56.9871 43.8571 57.103 44.2704 57.2576C44.787 57.4507 45.4069 57.6825 46.2587 57.2944L46.4716 57.1974L46.0188 56.2037L45.8769 56.2684C45.451 56.4624 45.1024 56.4499 44.6568 56.2243Z" fill="#CBD0D8"/>
<path d="M42.6191 51.7525C42.1025 51.5594 41.4826 51.3275 40.5599 51.748C39.7081 52.1361 39.4053 52.7884 39.2121 53.305C39.0576 53.7183 38.9417 54.0283 38.4449 54.2547C37.948 54.4811 37.638 54.3651 37.2248 54.2106C36.7081 54.0174 36.0882 53.7856 35.1655 54.2061C34.3138 54.5942 34.011 55.2465 33.8178 55.7631C33.5923 56.2087 33.4764 56.5187 33.0505 56.7127C32.5537 56.9391 32.2437 56.8232 31.8304 56.6687C31.3138 56.4755 30.6939 56.2437 29.7711 56.6642C28.9194 57.0523 28.6166 57.7045 28.4234 58.2212C28.3012 58.7054 28.153 58.9444 27.7271 59.1385L27.5852 59.2031L28.038 60.1968L28.1799 60.1322C29.0317 59.744 29.2635 59.1241 29.5276 58.5752C29.7532 58.1295 29.8691 57.8196 30.2949 57.6255C30.7918 57.3991 31.1017 57.515 31.586 57.6372C32.1026 57.8304 32.7225 58.0622 33.5743 57.6741C34.426 57.286 34.6578 56.666 34.922 56.1171C35.0765 55.7038 35.2634 55.3615 35.6893 55.1674C36.1861 54.941 36.4961 55.0569 36.9094 55.2115C37.426 55.4047 38.1169 55.6041 38.9686 55.216C39.8204 54.8279 40.0522 54.208 40.3163 53.659C40.4709 53.2457 40.5868 52.9358 41.0836 52.7094C41.5805 52.483 41.8904 52.5989 42.3037 52.7534C42.8203 52.9466 43.4403 53.1784 44.292 52.7903L44.434 52.7256L43.9812 51.7319L43.8392 51.7966C43.4133 51.9906 43.0647 51.9781 42.6191 51.7525Z" fill="#CBD0D8"/>
<path d="M40.5815 47.2811C40.0973 47.1589 39.4064 46.9594 38.5546 47.3475C37.7029 47.7356 37.4001 48.3879 37.2069 48.9045C37.0524 49.3178 36.9365 49.6277 36.4396 49.8541C35.9428 50.0806 35.6328 49.9646 35.2195 49.8101C34.7029 49.6169 34.083 49.3851 33.1603 49.8056C32.3085 50.1937 32.0057 50.846 31.8126 51.3626C31.587 51.8082 31.4711 52.1182 31.0453 52.3122C30.5484 52.5386 30.2385 52.4227 29.8252 52.2682C29.3086 52.075 28.6886 51.8432 27.7659 52.2637C26.9142 52.6518 26.6114 53.304 26.4182 53.8206C26.1927 54.2663 26.0768 54.5762 25.6509 54.7703L25.509 54.835L25.9294 55.7577L26.0714 55.693C26.9231 55.3049 27.1549 54.685 27.4191 54.136C27.6446 53.6904 27.7605 53.3804 28.1864 53.1864C28.6832 52.96 28.9932 53.0759 29.4775 53.1981C29.9941 53.3912 30.614 53.6231 31.4657 53.2349C32.3175 52.8468 32.5493 52.2269 32.8134 51.6779C32.968 51.2647 33.1549 50.9224 33.5807 50.7283C34.0776 50.5019 34.3875 50.6178 34.8008 50.7723C35.3174 50.9655 36.0083 51.165 36.8601 50.7769C37.7118 50.3888 37.9436 49.7688 38.2078 49.2199C38.3623 48.8066 38.4782 48.4966 38.9751 48.2702C39.4719 48.0438 39.7819 48.1597 40.1952 48.3143C40.7118 48.5074 41.3317 48.7393 42.1835 48.3511L42.3964 48.2541L41.9759 47.3314L41.834 47.3961C41.4081 47.5901 41.0272 47.5066 40.5815 47.2811Z" fill="#CBD0D8"/>
<path d="M38.5762 42.8803C38.0596 42.6872 37.4397 42.4554 36.517 42.8758C35.6652 43.2639 35.3624 43.9162 35.1693 44.4328C35.0147 44.8461 34.8988 45.1561 34.402 45.3825C33.9051 45.6089 33.5952 45.493 33.1819 45.3384C32.6653 45.1452 32.0453 44.9134 31.1226 45.3339C30.2709 45.722 29.9681 46.3743 29.7749 46.8909C29.5494 47.3365 29.4335 47.6465 29.0076 47.8405C28.5108 48.0669 28.2008 47.951 27.7875 47.7965C27.2709 47.6033 26.651 47.3715 25.7283 47.792C24.8765 48.1801 24.5737 48.8324 24.3806 49.349C24.155 49.7946 24.0391 50.1046 23.6133 50.2986L23.4713 50.3633L23.9241 51.357L24.0661 51.2923C24.9178 50.9042 25.1496 50.2843 25.4138 49.7353C25.6393 49.2897 25.7552 48.9797 26.1811 48.7857C26.6779 48.5593 26.9879 48.6752 27.4721 48.7974C27.9887 48.9905 28.6087 49.2224 29.4604 48.8342C30.3122 48.4461 30.544 47.8262 30.8081 47.2772C30.9627 46.864 31.1495 46.5216 31.5754 46.3276C32.0723 46.1012 32.3822 46.2171 32.7955 46.3716C33.3121 46.5648 34.003 46.7643 34.8548 46.3762C35.7065 45.988 35.9383 45.3681 36.2025 44.8192C36.357 44.4059 36.4729 44.0959 36.9698 43.8695C37.4666 43.6431 37.7766 43.759 38.1899 43.9136C38.7065 44.1067 39.3264 44.3385 40.1781 43.9504L40.3911 43.8534L39.9383 42.8597L39.7963 42.9244C39.3705 43.1185 38.9895 43.0349 38.5762 42.8803Z" fill="#CBD0D8"/>
<path d="M36.5387 38.4089C36.0221 38.2157 35.4021 37.9839 34.4794 38.4044C33.6277 38.7925 33.3249 39.4448 33.1317 39.9614C32.9772 40.3747 32.8613 40.6846 32.3644 40.911C31.8676 41.1374 31.5576 41.0215 31.1443 40.867C30.6277 40.6738 30.0078 40.442 29.085 40.8625C28.2333 41.2506 27.9305 41.9029 27.7373 42.4195C27.5118 42.8651 27.3959 43.1751 26.97 43.3691C26.4732 43.5955 26.1632 43.4796 25.75 43.3251C25.2333 43.1319 24.6134 42.9001 23.6907 43.3205C22.839 43.7087 22.5362 44.3609 22.343 44.8775C22.1175 45.3232 22.0016 45.6331 21.5757 45.8272L21.4337 45.8919L21.8865 46.8856L22.0285 46.8209C22.8802 46.4328 23.1121 45.8128 23.3762 45.2639C23.6017 44.8183 23.7176 44.5083 24.1435 44.3142C24.6403 44.0878 24.9503 44.2037 25.4346 44.3259C25.9512 44.5191 26.5711 44.7509 27.4229 44.3628C28.2746 43.9747 28.5064 43.3548 28.7706 42.8058C28.9251 42.3925 29.112 42.0502 29.5379 41.8562C30.0347 41.6298 30.3447 41.7457 30.758 41.9002C31.2746 42.0934 31.9655 42.2929 32.8172 41.9047C33.6689 41.5166 33.9008 40.8967 34.1649 40.3477C34.3195 39.9345 34.4354 39.6245 34.9322 39.3981C35.4291 39.1717 35.739 39.2876 36.1523 39.4421C36.6689 39.6353 37.2888 39.8671 38.1406 39.479L38.3535 39.382L37.9007 38.3883L37.7588 38.453C37.3329 38.647 36.9519 38.5635 36.5387 38.4089Z" fill="#CBD0D8"/>
</g>
</g>
<defs>
<clipPath id="clip0">
<rect x="176.741" y="14.9998" width="82.3608" height="82.3608" transform="rotate(23.4225 176.741 14.9998)" fill="white"/>
</clipPath>
<clipPath id="clip1">
<rect x="0.0022583" y="32.3428" width="78" height="78" transform="rotate(-24.4976 0.0022583 32.3428)" fill="white"/>
</clipPath>
</defs>
</svg>
